<svg width="484" height="334" viewBox="0 0 484 334" fill="none" xmlns="http://www.w3.org/2000/svg">
<g clip-path="url(#clip0)">
<path fill-rule="evenodd" clip-rule="evenodd" d="M5.33818 102.33C2.97179 101.152 -0.182875 102.519 1.13311 105.633C2.54276 108.968 7.75461 109.009 10.698 108.943C10.4034 108.928 9.45477 105.869 9.12999 105.407C8.17217 104.044 6.79298 103.056 5.33818 102.33ZM32.6034 162.126C33.2004 162.639 32.6519 162.174 32.6034 162.126V162.126ZM3.05857 117.415C1.67377 118.478 1.60772 120.355 2.73892 121.625C4.08592 123.137 6.54551 123.082 8.38151 122.935C9.21202 122.868 13.6466 122.511 12.5954 121.783C12.6763 121.813 12.8452 121.888 13.0259 121.989C13.1231 122.346 13.2252 122.701 13.3317 123.055C13.3056 123.07 13.2834 123.087 13.2555 123.102C13.2857 123.089 13.3069 123.074 13.3334 123.061C14.3999 126.599 15.9178 129.967 17.9055 133.118C17.1618 132.824 16.3916 132.602 15.6103 132.503C13.2969 132.209 8.43008 134.014 11.0179 137.107C13.4992 140.071 17.3622 136.891 20.1783 136.452C22.9098 140.279 25.9214 143.948 29.0775 147.493C28.8841 147.554 28.7144 147.681 28.6171 147.878C27.351 147.233 26.0316 146.31 24.8598 146.061C23.1688 145.701 19.7015 145.482 18.4234 147.002C16.8515 148.871 18.5365 150.388 20.3936 150.747C23.0866 151.267 26.6117 149.946 29.2029 149.053C29.4993 149.106 29.8228 149.019 30.0161 148.781C30.0734 148.762 30.1306 148.743 30.1863 148.725C33.3825 152.253 36.7009 155.665 39.9992 159.002C39.9641 159 39.929 158.998 39.8924 158.996C39.032 158.43 38.1091 157.965 37.1088 157.721C34.7949 157.155 32.0722 157.152 30.1944 158.833C28.3239 160.507 27.6613 163.435 29.5964 165.314C33.4698 169.077 39.1768 160.498 41.1307 160.14C44.4824 163.496 48.0266 166.631 51.6264 169.703C51.2176 169.578 50.7983 169.486 50.365 169.445C46.835 169.105 38.5495 173.45 42.8816 177.725C46.6568 181.451 51.0263 174.28 54.0686 171.773C57.4608 174.636 60.8715 177.48 64.1864 180.434C62.3784 179.952 60.6312 179.881 58.693 180.469C56.6875 181.078 53.4515 182.599 54.7192 185.317C56.0087 188.082 59.8947 186.824 61.9187 185.946C63.0226 185.467 65.2359 183.852 67.1792 183.171C72.4689 188.185 77.0507 193.708 80.5194 200.214C82.6849 204.276 84.3282 208.616 85.4849 213.076C86.2232 215.923 87.6779 220.705 87.3867 224.41C88.7748 216.993 86.2649 208.085 83.5611 201.455C81.075 195.359 77.3543 190.007 72.9963 185.19C74.0899 181.887 83.295 177.124 77.7921 174.056C74.8699 172.433 71.8769 175.125 71.2382 177.976C70.7994 179.935 71.4679 182.397 72.1773 184.299C70.8063 182.83 69.3812 181.409 67.9126 180.035C65.8831 178.136 63.8049 176.292 61.7069 174.471C65.1641 171.21 68.4361 161.887 63.8006 160.363C56.9555 158.118 60.2514 170.834 60.7289 173.217C60.8645 173.225 60.9702 173.184 61.0479 173.096C61.0094 173.314 60.9648 173.548 60.9106 173.783C56.8951 170.316 52.82 166.918 48.8791 163.368C49.2342 163.105 49.7986 162.098 50.2422 161.562C51.2434 160.354 52.2013 159.092 52.9013 157.679C54.0071 155.446 55.0737 151.883 52.1423 150.57C48.9544 149.139 47.4394 153.168 47.4172 155.571C47.402 157.233 47.8529 158.812 48.0878 160.442C48.1612 160.95 47.8785 163.24 48.568 162.255C48.5354 162.618 48.5308 162.881 48.5469 163.068C47.8394 162.427 47.1373 161.78 46.4397 161.128C46.472 161.046 46.496 160.956 46.5014 160.852C46.5388 160.135 45.8207 159.859 45.3171 160.069C44.3965 159.191 43.485 158.301 42.5898 157.394C40.6923 155.473 38.7673 153.496 36.8557 151.478C37.2704 151.12 37.1055 150.625 37.4934 150.245C37.8806 149.866 38.6433 149.657 39.0987 149.305C40.244 148.419 41.1938 147.128 41.8807 145.858C43.0147 143.76 44.4802 139.357 41.1674 138.357C37.7528 137.324 36.0196 141.562 35.8 144.212C35.7573 144.725 36.1401 149.35 36.4331 151.029C32.8959 147.278 29.4168 143.386 26.2648 139.426C27.2205 139.417 29.93 137.451 30.4778 136.915C31.8143 135.606 33.9389 132.715 31.5958 131.185C29.5124 129.828 26.9443 131.794 26.0534 133.704C25.907 134.018 25.3906 136.946 25.3503 138.259C24.0457 136.58 22.8013 134.891 21.6435 133.197C20.8714 132.07 20.1498 130.914 19.4747 129.733C19.6373 129.64 19.7901 129.479 19.9345 129.278C23.4093 128.686 27.8394 123.243 23.7579 121.349C21.8147 120.448 19.7073 122.307 18.7554 123.829C18.5604 124.141 18.2445 125.706 17.9875 126.941C16.0452 123.029 14.5611 118.887 13.4314 114.64C13.7339 114.565 13.9901 114.333 14.0239 113.934C15.7109 112.968 17.043 112.164 18.2207 110.307C18.9523 109.154 20.2699 106.519 18.1202 105.879C15.3226 105.046 13.5653 109.336 13.3365 111.449C13.3098 111.694 13.3108 112.408 13.32 113.061C13.2229 113.048 13.1247 113.05 13.0284 113.067C12.3859 110.437 11.873 107.774 11.4652 105.106C12.9921 104.612 13.2562 96.561 12.2395 95.4146C9.96702 92.8476 8.36381 96.5557 8.48512 98.5155C8.62844 100.826 9.67137 102.928 10.9132 104.794C11.0465 104.991 11.0085 104.982 11.043 104.707C11.0621 104.843 11.1074 104.943 11.1746 105.016C11.1105 106.232 10.9856 107.478 11.0456 108.554C11.2176 111.636 11.5752 114.737 12.0944 117.779C12.2207 118.519 12.3654 119.253 12.5275 119.981C11.3003 118.931 9.64555 117.999 8.99806 117.707C7.31757 116.951 4.72773 116.134 3.05857 117.415ZM87.5838 224.421C87.5058 225.496 87.3126 226.48 86.9519 227.291C87.2224 226.367 87.43 225.407 87.5838 224.421Z" fill="#F2F2F2"/>
<g opacity="0.7">
<path opacity="0.7" fill-rule="evenodd" clip-rule="evenodd" d="M51.3694 175.133C57.9416 174.791 66.0695 178.643 66.7707 185.815C67.28 191.027 67.1223 196.223 67.9105 201.427C68.5409 205.586 69.8739 209.579 71.692 213.367C73.4403 217.01 77.0667 220.111 78.01 224.003C78.6111 226.482 78.2746 229.971 77.4456 232.396C76.4373 235.345 76.9732 235.112 78.9821 237.587C82.9187 242.436 86.4634 247.409 88.97 253.201C92.5807 261.543 94.9479 271.294 93.6078 280.426C93.4373 281.586 93.2352 285.747 91.6448 286.038C89.8685 286.363 90.6991 283.983 90.7939 283.214C91.3983 278.309 91.9353 274.021 91.2063 269.039C88.3932 249.817 74.6586 237.152 65.7155 220.837C65.2239 219.996 64.186 217.993 63.4644 216.671C62.3251 214.584 61.1798 210.614 59.6375 209.067C56.7328 206.152 59.4032 212.012 59.9692 213.13C60.6848 214.546 61.4721 216.049 62.2054 217.289C65.5608 223.037 69.3059 229.311 72.7713 235.236C57.7839 238.664 47.2289 220.574 43.2069 208.68C39.8932 198.882 35.9284 175.972 51.3694 175.133Z" fill="#69A1AC"/>
<path opacity="0.7" fill-rule="evenodd" clip-rule="evenodd" d="M139.457 156.937C128.47 157.812 121.417 165.091 118.133 175.271C116.364 180.758 116.161 186.394 115.178 192.032C113.698 200.515 110.515 206.944 104.295 212.987C102.368 214.859 100.949 216.781 99.9393 218.837C97.9357 220.889 96.1916 223.212 94.9102 226.052C93.2735 229.679 92.8103 234.031 94.7001 237.647C95.2082 238.619 96.4758 240.57 97.7895 241.457C92.871 251.974 90.1667 263.493 90.4715 274.997C90.6557 281.941 90.9934 288.889 91.3873 295.824C91.4933 297.687 92.0974 300.762 93.0046 297.639C93.835 294.782 92.7937 290.297 92.6974 287.313C92.2285 272.774 91.8277 259.554 97.7887 245.971C98.4138 244.547 99.0765 243.135 99.7668 241.734C99.8073 241.71 99.8449 241.682 99.883 241.654C99.9093 241.674 99.9332 241.696 99.9595 241.716C100.004 241.637 100.064 241.543 100.134 241.438C100.332 241.233 100.505 240.974 100.67 240.685C101.198 239.949 101.797 239.085 101.8 238.612C101.8 238.608 101.798 238.602 101.798 238.599C105.488 232.551 109.715 226.836 114.032 221.233C114 221.274 118.715 214.828 117.986 218.393C117.634 220.11 114.166 223.382 112.765 225.201C109.667 229.25 106.028 234.379 103.004 239.339C102.597 239.574 102.022 240.726 101.606 241.585C101.377 242.02 101.163 242.458 100.952 242.841C111.666 246.395 120.001 239.235 125.684 230.909C125.691 230.899 125.697 230.889 125.704 230.879C127.433 228.578 129.205 226.293 131.418 224.474C135.111 221.439 139.065 220.904 143.419 219.41C155.292 215.337 160.34 199.888 161.943 188.425C163.752 175.492 154.904 155.661 139.457 156.937Z" fill="#89C5CC"/>
<path opacity="0.7" fill-rule="evenodd" clip-rule="evenodd" d="M117.754 120.72C106.478 132.503 101.03 148.847 96.7168 164.211C91.899 181.371 88.7168 198.796 88.5946 216.638C88.5146 228.36 88.197 240.155 88.8784 251.864C89.1202 256.022 89.533 260.187 90.1895 264.301C90.2435 264.639 91.7122 273.824 93.1174 271.683C93.9167 270.466 91.612 262.155 91.4378 260.771C90.4582 252.975 90.2306 245.121 90.2784 237.268C90.3569 224.339 89.9772 211.476 91.2824 198.594C91.477 196.671 91.631 194.651 92.086 192.769C92.5691 190.769 91.9538 191.642 93.5275 190.85C95.0566 190.08 96.9461 190.19 98.5326 189.224C104.826 185.393 108.045 175.552 110.55 169.094C113.416 161.71 115.158 153.836 116.549 146.065C117.57 140.356 118.301 134.681 118.714 128.898C118.844 127.075 118.852 125.169 119.209 123.377C119.305 122.894 119.787 122.039 119.77 121.611C119.732 120.705 119.188 120.172 119.143 119.411C118.671 119.837 118.208 120.274 117.754 120.72Z" fill="#89C5CC"/>
<path opacity="0.7" fill-rule="evenodd" clip-rule="evenodd" d="M56.269 277.711C56.269 297.197 72.0026 312.994 91.4108 312.994C110.819 312.994 126.553 297.197 126.553 277.711" fill="#89C5CC"/>
<path opacity="0.7" fill-rule="evenodd" clip-rule="evenodd" d="M94.2304 277.823H92.3735C92.5024 275.484 92.6726 273.149 93.062 270.836C94.5516 261.989 99.2093 248.996 109.425 247.561C109.802 247.507 111.188 247.498 112.867 247.597C113.663 247.151 114.554 246.881 115.494 246.818C124.191 246.175 133.904 253.219 138.099 260.551C141.481 266.462 140.912 274.223 138.823 280.503C137.424 284.707 134.371 290.702 129.28 290.76C122.91 290.833 122.603 282.929 122.479 278.308C122.316 272.165 121.543 266.813 116.721 262.625C115.597 261.65 114.369 260.792 113.234 259.83C111.457 258.324 109.493 256.782 109.264 254.291C108.948 250.855 110.88 250.236 113.83 250.875C114.333 250.983 119.398 253.266 118.648 251.462C118.419 250.911 117.583 250.474 116.527 250.147C113.796 249.849 110.538 249.503 109.601 249.709C99.4942 251.936 95.559 265.992 94.5139 274.923C94.4012 275.887 94.31 276.854 94.2304 277.823Z" fill="#69A1AC"/>
</g>
</g>
<g clip-path="url(#clip1)">
<path opacity="0.2" d="M445.483 27.2546C444.788 24.5569 443.717 21.9703 442.303 19.5707L445.546 14.6915L441.042 10.1822L436.537 5.67279L431.664 8.91953C429.267 7.5039 426.683 6.43223 423.988 5.73592L422.844 0H410.123L408.97 5.74494C406.275 6.44125 403.692 7.51291 401.295 8.92855L396.421 5.68181L391.916 10.1912L387.412 14.7005L390.655 19.5797C389.241 21.9794 388.171 24.5659 387.475 27.2636L381.736 28.418V41.1435L387.475 42.2979C388.171 44.9956 389.241 47.5822 390.655 49.9818L387.412 54.861L391.916 59.3704L396.421 63.8797L401.295 60.633C403.692 62.0486 406.275 63.1203 408.97 63.8166L410.123 69.5615H422.844L423.997 63.8166C426.692 63.1203 429.276 62.0486 431.673 60.633L436.546 63.8797L441.051 59.3704L445.555 54.861L442.312 49.9818C443.726 47.5822 444.797 44.9956 445.492 42.2979L451.231 41.1435V28.409L445.483 27.2546ZM416.484 57.0886C412.075 57.0886 407.766 55.78 404.101 53.3283C400.436 50.8766 397.579 47.3919 395.892 43.3148C394.205 39.2378 393.764 34.7515 394.624 30.4233C395.484 26.0952 397.607 22.1195 400.724 18.999C403.841 15.8786 407.812 13.7536 412.135 12.8926C416.459 12.0317 420.94 12.4736 425.013 14.1623C429.085 15.8511 432.566 18.7109 435.015 22.3802C437.464 26.0494 438.772 30.3633 438.772 34.7763C438.772 40.6939 436.423 46.3691 432.244 50.5535C428.064 54.7379 422.395 57.0886 416.484 57.0886Z" fill="url(#paint0_linear)"/>
<path opacity="0.2" d="M454.168 81.4031C453.847 80.1641 453.353 78.9768 452.699 77.8768L454.195 75.6402L452.132 73.5749L450.069 71.5096L447.835 72.9977C446.734 72.3497 445.548 71.8579 444.312 71.5366L443.763 68.9032H437.934L437.456 71.5366C436.223 71.8563 435.04 72.3481 433.943 72.9977L431.709 71.5096L429.646 73.5749L427.547 75.6402L429.033 77.8768C428.376 78.9774 427.876 80.1643 427.547 81.4031L424.916 81.9262V87.7704L427.547 88.2935C427.868 89.5309 428.359 90.7177 429.006 91.8198L427.547 94.0564L429.61 96.1217L431.673 98.187L433.907 96.6989C435.004 97.3485 436.187 97.8403 437.42 98.16L437.952 100.793H443.763L444.294 98.16C445.53 97.8387 446.716 97.3469 447.817 96.6989L450.051 98.187L452.114 96.1217L454.177 94.0564L452.681 91.8198C453.335 90.7198 453.829 89.5325 454.15 88.2935L456.771 87.7704V81.9262L454.168 81.4031ZM440.871 95.0755C438.85 95.0755 436.875 94.4757 435.195 93.3519C433.515 92.2282 432.206 90.6309 431.432 88.7621C430.659 86.8933 430.457 84.837 430.851 82.8531C431.245 80.8692 432.218 79.0468 433.647 77.6165C435.076 76.1862 436.896 75.2122 438.878 74.8176C440.859 74.4229 442.914 74.6255 444.78 75.3995C446.647 76.1736 448.243 77.4845 449.365 79.1663C450.488 80.8482 451.087 82.8255 451.087 84.8483C451.087 87.5607 450.01 90.1621 448.095 92.0801C446.179 93.998 443.58 95.0755 440.871 95.0755Z" fill="url(#paint1_linear)"/>
<path d="M269.36 284.244H300.647V189.105H269.36V284.244Z" fill="#AEBECC"/>
<path d="M163.658 234.938L406.348 234.938C413.936 234.938 420.087 228.78 420.087 221.185V57.8913C420.087 50.2954 413.936 44.1377 406.348 44.1377L163.658 44.1377C156.071 44.1377 149.92 50.2954 149.92 57.8913V221.185C149.92 228.78 156.071 234.938 163.658 234.938Z" fill="#F0F0F0"/>
<path d="M160.505 205.032L409.511 205.032V23.8275L160.505 23.8275L160.505 205.032Z" fill="white"/>
<path d="M160.505 45.716L409.511 45.716V23.8275L160.505 23.8275V45.716Z" fill="url(#paint2_linear)"/>
<path d="M276.288 218.722C276.288 220.45 276.799 222.138 277.758 223.574C278.717 225.009 280.079 226.128 281.673 226.789C283.267 227.449 285.021 227.622 286.713 227.284C288.405 226.947 289.959 226.114 291.178 224.892C292.397 223.671 293.227 222.114 293.562 220.42C293.898 218.726 293.724 216.97 293.062 215.375C292.401 213.78 291.282 212.417 289.847 211.459C288.411 210.501 286.724 209.991 284.999 209.992C283.854 209.992 282.721 210.218 281.663 210.657C280.606 211.096 279.645 211.739 278.836 212.55C278.027 213.361 277.385 214.323 276.948 215.382C276.511 216.441 276.286 217.576 276.288 218.722Z" fill="#757575"/>
<path opacity="0.25" d="M237.585 67.7758L318.791 67.7758C320.533 67.7758 321.944 66.3626 321.944 64.6193V64.4479C321.944 62.7046 320.533 61.2914 318.791 61.2914L237.585 61.2914C235.844 61.2914 234.432 62.7046 234.432 64.4479V64.6193C234.432 66.3626 235.844 67.7758 237.585 67.7758Z" fill="#47C94D"/>
<path opacity="0.25" d="M237.585 79.4731L318.791 79.4731C320.533 79.4731 321.944 78.0599 321.944 76.3166V76.1452C321.944 74.4019 320.533 72.9887 318.791 72.9887L237.585 72.9887C235.844 72.9887 234.432 74.4019 234.432 76.1452V76.3166C234.432 78.0599 235.844 79.4731 237.585 79.4731Z" fill="#47C94D"/>
<path opacity="0.25" d="M237.585 91.1704L318.791 91.1704C320.533 91.1704 321.944 89.7572 321.944 88.0139V87.8425C321.944 86.0992 320.533 84.686 318.791 84.686L237.585 84.686C235.844 84.686 234.432 86.0992 234.432 87.8425V88.0139C234.432 89.7572 235.844 91.1704 237.585 91.1704Z" fill="#47C94D"/>
<path d="M279.486 192.289H186.109C182.366 192.284 178.778 190.793 176.132 188.144C173.485 185.495 171.996 181.903 171.992 178.156V121.338C171.992 117.588 173.478 113.992 176.125 111.339C178.772 108.685 182.363 107.193 186.109 107.188H279.486C283.227 107.192 286.814 108.683 289.459 111.333C292.104 113.982 293.591 117.574 293.594 121.32V178.138C293.596 181.887 292.111 185.484 289.466 188.137C286.82 190.791 283.231 192.284 279.486 192.289ZM186.109 108.955C182.834 108.96 179.696 110.264 177.38 112.582C175.065 114.9 173.762 118.042 173.757 121.32V178.138C173.757 181.419 175.058 184.566 177.374 186.888C179.69 189.209 182.831 190.516 186.109 190.521H279.486C282.759 190.516 285.897 189.212 288.211 186.894C290.525 184.575 291.825 181.433 291.828 178.156V121.338C291.825 118.061 290.525 114.919 288.211 112.601C285.897 110.283 282.759 108.978 279.486 108.973L186.109 108.955Z" fill="#D1F1D2"/>
<path d="M193.523 128.607H272.098C275.541 128.607 278.333 125.813 278.333 122.366V121.176C278.333 117.729 275.541 114.935 272.098 114.935L193.523 114.935C190.08 114.935 187.289 117.729 187.289 121.176V122.366C187.289 125.813 190.08 128.607 193.523 128.607Z" fill="#D1F1D2"/>
<path d="M355.376 280.654H214.622V287.833H355.376V280.654Z" fill="#F0F0F0"/>
<path d="M381.502 125.866C381.507 129.411 380.582 132.896 378.821 135.973C377.06 139.049 374.524 141.609 371.466 143.398C370.249 144.107 368.963 144.69 367.628 145.139L367.259 145.256C363.184 146.525 358.813 146.473 354.769 145.108C350.725 143.744 347.214 141.135 344.738 137.656C342.263 134.176 340.947 130.002 340.981 125.73C341.014 121.458 342.394 117.305 344.923 113.865C347.453 110.424 351.004 107.871 355.068 106.569C359.133 105.268 363.505 105.284 367.559 106.616C371.614 107.949 375.145 110.529 377.649 113.989C380.153 117.448 381.501 121.611 381.502 125.884V125.866Z" fill="#EEF0F7"/>
<path d="M356.376 123.719C356.376 123.719 354.989 114.754 362.403 114.926C369.818 115.097 369.718 119.516 369.61 123.945C369.502 128.373 366.637 128.012 369.836 134.136C373.034 140.259 367.061 140.25 367.061 140.25L362.421 133.865L356.376 123.719Z" fill="#3C4145"/>
<path d="M361.62 115.783C361.62 115.783 356.602 116.576 356.403 123.719C356.205 130.862 357.755 132.386 362.151 130.934C366.547 129.482 367.935 121.969 368.034 120.815C368.133 119.661 368.394 114.926 361.62 115.783Z" fill="#EEA886"/>
<path d="M370.439 140.629C370.457 141.573 370.201 142.501 369.702 143.302C369.203 144.102 368.483 144.74 367.628 145.139L367.259 145.256C362.282 146.799 356.902 146.37 352.232 144.056C351.619 142.839 352.511 141.107 354.304 138.447C355.538 136.643 356.746 134.749 358.809 133.847C361.863 133.36 365.115 133.333 367.376 134.623C369.196 135.633 370.412 137.491 370.439 140.629Z" fill="#E55353"/>
<path d="M355.286 138.32L352.98 141.928C353.159 141.211 353.3 140.486 353.403 139.754C353.448 139.457 353.502 139.114 353.557 138.735C353.575 138.619 353.602 138.505 353.638 138.393C354.62 136.111 357.701 134.415 357.818 134.361L355.286 138.32Z" fill="#E55353"/>
<path d="M371.466 143.398C370.249 144.107 368.963 144.69 367.628 145.139L367.259 145.256C366.746 143.93 366.304 142.785 366.205 142.487C366.205 142.406 366.115 142.244 366.025 142.027C365.289 140.439 364.829 138.737 364.665 136.995C364.665 135.858 365.034 134.929 366.169 134.668C366.566 134.564 366.981 134.549 367.385 134.623C367.959 134.784 368.482 135.088 368.908 135.505C369.333 135.923 369.646 136.442 369.818 137.013C369.822 137.031 369.822 137.049 369.818 137.067C370.029 137.587 370.183 138.128 370.277 138.681L370.331 138.907L370.719 140.44C370.944 141.224 371.196 142.253 371.466 143.398Z" fill="#EEA886"/>
<path d="M364.971 127.678C364.539 128.499 364.07 133.613 364.07 133.613C364.07 133.613 357.926 135.939 358.557 134.623C358.823 133.977 358.952 133.283 358.935 132.585C358.933 132.169 358.909 131.753 358.863 131.34V131.132C358.863 131.132 365.385 126.858 364.971 127.678Z" fill="#EEA886"/>
<path d="M359.575 120.914C359.575 120.914 362.151 125.108 364.494 126.767C366.836 128.427 365.647 129.744 365.647 129.744C365.647 129.744 371.773 116.838 365.953 115.945C360.133 115.052 356.566 114.989 356.404 123.719C356.376 123.719 359.079 120.851 359.575 120.914Z" fill="#3C4145"/>
<path d="M362.376 130.817C361.43 132.206 358.944 132.621 358.944 132.621C358.942 132.205 358.918 131.789 358.872 131.376C360.068 131.492 361.275 131.299 362.376 130.817Z" fill="#A77860"/>
<path d="M353.673 138.402C353.529 138.851 353.447 139.318 353.43 139.79L354.331 138.429C354.331 138.429 355.944 136.111 356.502 135.507C356.912 135.082 357.365 134.701 357.854 134.37C357.854 134.37 354.574 135.903 353.673 138.402Z" fill="#BD4444"/>
<path d="M365.863 141.865C367.521 141.187 369.228 140.638 370.971 140.223C370.971 140.223 370.178 133.91 366.304 134.56C362.43 135.209 365.863 141.865 365.863 141.865Z" fill="#E55353"/>
<path d="M358.818 133.829C358.818 133.829 355.926 138.284 356.908 138.672C357.89 139.06 363.214 138.158 365.439 133.919C364.407 133.427 363.281 133.164 362.139 133.149C360.996 133.133 359.863 133.365 358.818 133.829Z" fill="#EEA886"/>
<path d="M388.988 66.6846C388.99 71.9059 387.445 77.0106 384.549 81.3529C381.653 85.6952 377.535 89.08 372.717 91.0794C367.899 93.0788 362.596 93.6028 357.481 92.5853C352.365 91.5678 347.666 89.0543 343.977 85.3629C340.288 81.6714 337.776 76.9678 336.758 71.8469C335.74 66.7259 336.261 61.4177 338.257 56.5936C340.252 51.7695 343.632 47.6462 347.969 44.7452C352.305 41.8442 357.404 40.2957 362.619 40.2957C369.611 40.2957 376.317 43.0757 381.262 48.0243C386.207 52.9729 388.986 59.685 388.988 66.6846Z" fill="#EEF0F7"/>
<path d="M379.799 81.2498L377.853 88.2303C374.303 90.7533 370.183 92.3554 365.862 92.893C365.079 92.9832 364.286 93.0463 363.493 93.0734H362.592C361.745 93.0734 360.899 93.0734 360.07 92.9471C359.148 92.858 358.231 92.7226 357.322 92.5413C353.39 91.7485 349.692 90.064 346.511 87.6171C346.142 85.3083 345.737 82.756 345.385 80.4021C347.322 79.6716 353.493 77.5792 357.385 76.2625C357.438 76.2404 357.492 76.2223 357.547 76.2084L357.8 76.1182L358.457 75.8927L359.061 75.6853L360.628 75.1622H360.709H360.754L365.989 75.559L366.889 75.6221H367.16H367.286C367.601 75.7033 368.52 75.9378 369.727 76.3166C372.871 77.2636 377.898 79.0673 379.799 81.2498Z" fill="#D9C7C1"/>
<path d="M363.998 53.5803C363.998 53.5803 370.304 54.6445 369.205 64.475C368.106 74.3054 362.601 73.4937 362.232 73.4306C361.863 73.3675 356.655 73.5568 356.385 61.5258C356.376 61.5258 356.304 52.6334 363.998 53.5803Z" fill="#EEA987"/>
<path d="M366.746 70.5807C366.746 70.5807 366.529 74.6301 366.908 75.5139C367.286 76.3977 361.872 79.1845 358.502 76.0009C358.833 74.0253 358.99 72.0245 358.971 70.0215C358.764 68.4522 366.746 70.5807 366.746 70.5807Z" fill="#EEA987"/>
<path d="M369.331 61.6972C369.331 61.6972 370.034 60.9667 370.277 61.6972C370.52 62.4277 369.16 65.7647 369.25 65.909C369.25 65.909 369.115 66.1976 368.953 66.0442C368.992 64.589 369.118 63.1373 369.331 61.6972Z" fill="#EEA987"/>
<path d="M356.457 61.4357C356.457 61.4357 355.791 60.6781 355.557 61.4357C355.322 62.1932 356.286 65.476 356.412 65.6835C356.412 65.6835 356.629 66.0262 356.8 65.8729C356.777 64.3882 356.663 62.9063 356.457 61.4357Z" fill="#EEA987"/>
<path d="M369.736 60.8585C369.52 62.2113 369.313 63.2123 369.313 63.2123L368.412 64.4028C368.449 63.3828 368.418 62.3615 368.322 61.3455C368.277 61.1921 368.214 60.9126 368.151 60.6059C368.043 60.1099 367.935 59.5507 367.863 59.3613C367.79 59.1719 362.457 57.5576 357.791 59.686C357.791 59.686 357.836 60.0919 357.836 60.5428C357.836 60.9937 357.773 61.6611 357.529 61.7513C357.079 61.9136 357.268 64.8447 357.268 64.8447L356.538 63.997C356.538 63.997 356.331 62.4728 356.124 60.7142C356.079 60.3083 356.034 59.8844 355.989 59.4696C355.881 57.6658 356.052 54.4912 358.349 52.6063C359.908 51.9479 362.385 51.3798 366.511 52.6063C366.933 52.6206 367.346 52.7316 367.718 52.931C370.277 55.7809 369.736 60.8585 369.736 60.8585Z" fill="#E8734D"/>
<path d="M359.403 72.1499C359.815 72.6163 360.33 72.9799 360.907 73.2116C361.485 73.4433 362.108 73.5369 362.728 73.4847C363.341 73.5135 363.954 73.4164 364.529 73.1992C365.104 72.9821 365.628 72.6496 366.07 72.2221C366.07 72.2221 364.971 74.5218 362.719 74.5038C360.466 74.4858 359.403 72.1499 359.403 72.1499Z" fill="#C78D71"/>
<path d="M357.863 76.0911C358.389 76.9522 359.099 77.6864 359.942 78.2414C360.784 78.7963 361.738 79.1584 362.737 79.3018C364.764 79.4731 366.511 76.9028 367.331 75.6402C365.802 75.0825 364.177 74.8352 362.552 74.9126C360.926 74.99 359.332 75.3906 357.863 76.0911Z" fill="#EEA987"/>
<path d="M366.754 74.7203C365.598 76.0768 364.243 77.2505 362.736 78.2015L364.484 80.826L367.376 75.6402L366.754 74.7203Z" fill="#EDDAD3"/>
<path d="M358.628 75.1081C359.752 76.431 361.155 77.4876 362.736 78.2015L360.872 80.9071L357.61 76.1813L358.628 75.1081Z" fill="#EDDAD3"/>
<path d="M362.737 78.2015L364.196 80.4201C363.739 80.663 363.229 80.7855 362.712 80.776C362.195 80.7665 361.689 80.6254 361.241 80.366L362.737 78.2015Z" fill="#5073AB"/>
<path d="M381.475 80.835C381.232 81.7368 380.854 83.0536 379.863 86.6521C379.556 86.9136 379.25 87.1751 378.962 87.4186C378.673 87.6621 378.25 87.9688 377.881 88.2303C374.323 90.7575 370.193 92.3597 365.863 92.893C366.25 83.757 367.331 75.6492 367.331 75.6492C368.19 75.8777 369.001 76.1031 369.764 76.3256C373.65 77.3327 377.417 78.7569 380.998 80.5734C381.34 80.7448 381.475 80.835 381.475 80.835Z" fill="#323657"/>
<path d="M357.349 92.5503C352.253 91.5085 347.579 88.9791 343.917 85.2812L343.43 84.7852C342.971 82.8191 342.665 81.5384 342.646 81.4573C342.646 81.4573 345.908 79.3108 357.448 76.2264C357.448 76.4969 357.457 83.8743 357.349 92.5503Z" fill="#323657"/>
<path d="M363.584 80.6636C363.475 83.0716 363.457 87.7343 363.502 93.0644H362.602C361.755 93.0644 360.908 93.0644 360.079 92.9381C360.347 88.7989 360.931 84.6863 361.827 80.6365C361.953 80.1044 362.034 79.8429 362.034 79.8429L363.584 80.0954C363.584 80.2668 363.584 80.4652 363.584 80.6636Z" fill="#5073AB"/>
<path d="M382.808 83.6668C381.909 84.7409 380.924 85.7393 379.862 86.6521C379.556 86.9136 379.25 87.1751 378.961 87.4186L381.502 80.835C382.097 81.3581 382.601 83.1528 382.808 83.6668Z" fill="#323657"/>
<path d="M343.917 85.2812L343.43 84.7852C342.845 84.1539 342.286 83.5045 341.764 82.8191C341.932 82.2901 342.244 81.8185 342.665 81.4573L343.917 85.2812Z" fill="#323657"/>
<path d="M203.441 30.6367H173.874C172.232 30.6367 170.901 31.9691 170.901 33.6128V35.9307C170.901 37.5744 172.232 38.9068 173.874 38.9068H203.441C205.083 38.9068 206.414 37.5744 206.414 35.9307V33.6128C206.414 31.9691 205.083 30.6367 203.441 30.6367Z" fill="white"/>
<path d="M361.498 194.501C372.687 194.354 381.639 185.155 381.492 173.954C381.346 162.753 372.157 153.791 360.968 153.938C349.779 154.085 340.827 163.284 340.974 174.485C341.12 185.686 350.309 194.648 361.498 194.501Z" fill="#EEF0F7"/>
<path d="M361.241 182.287C360.971 182.287 360.712 182.179 360.521 181.988C360.33 181.797 360.223 181.538 360.223 181.268V167.135C360.223 166.865 360.33 166.606 360.521 166.415C360.712 166.224 360.971 166.116 361.241 166.116C361.511 166.116 361.77 166.224 361.961 166.415C362.152 166.606 362.259 166.865 362.259 167.135V181.277C362.257 181.545 362.149 181.802 361.958 181.991C361.767 182.181 361.51 182.287 361.241 182.287Z" fill="#949494"/>
<path d="M368.295 175.216H354.187C353.917 175.216 353.658 175.109 353.467 174.918C353.276 174.726 353.169 174.467 353.169 174.197C353.169 173.927 353.276 173.667 353.467 173.476C353.658 173.285 353.917 173.178 354.187 173.178H368.295C368.565 173.178 368.824 173.285 369.015 173.476C369.206 173.667 369.313 173.927 369.313 174.197C369.313 174.467 369.206 174.726 369.015 174.918C368.824 175.109 368.565 175.216 368.295 175.216Z" fill="#949494"/>
<path d="M317.962 108.072H306.908C304.714 108.072 302.936 109.852 302.936 112.049V123.115C302.936 125.311 304.714 127.092 306.908 127.092H317.962C320.157 127.092 321.935 125.311 321.935 123.115V112.049C321.935 109.852 320.157 108.072 317.962 108.072Z" fill="#D1F1D2"/>
<path d="M311.836 121.753L307.035 117.559C306.941 117.478 306.865 117.378 306.81 117.267C306.755 117.156 306.722 117.035 306.714 116.911C306.705 116.787 306.721 116.662 306.761 116.545C306.801 116.427 306.863 116.318 306.945 116.224C307.026 116.131 307.126 116.054 307.237 115.999C307.348 115.944 307.469 115.911 307.593 115.903C307.716 115.895 307.841 115.911 307.958 115.95C308.076 115.99 308.185 116.053 308.278 116.134L311.674 119.101L316.521 113.69C316.688 113.504 316.923 113.391 317.173 113.378C317.423 113.364 317.668 113.451 317.854 113.618C318.041 113.786 318.153 114.02 318.167 114.271C318.18 114.521 318.094 114.766 317.926 114.953L311.836 121.753Z" fill="#47C94D"/>
<path d="M317.962 132.449H306.908C304.714 132.449 302.936 134.23 302.936 136.426V147.492C302.936 149.689 304.714 151.47 306.908 151.47H317.962C320.157 151.47 321.935 149.689 321.935 147.492V136.426C321.935 134.23 320.157 132.449 317.962 132.449Z" fill="#D1F1D2"/>
<path d="M311.836 146.149L307.035 141.955C306.846 141.79 306.73 141.557 306.714 141.306C306.697 141.056 306.78 140.809 306.945 140.62C307.11 140.431 307.343 140.316 307.593 140.299C307.843 140.282 308.089 140.365 308.278 140.53L311.674 143.497L316.521 138.086C316.688 137.899 316.923 137.787 317.173 137.773C317.423 137.76 317.668 137.846 317.854 138.014C318.041 138.181 318.153 138.416 318.167 138.666C318.18 138.917 318.094 139.162 317.926 139.349L311.836 146.149Z" fill="#47C94D"/>
<path d="M317.962 156.827H306.908C304.714 156.827 302.936 158.608 302.936 160.804V171.87C302.936 174.067 304.714 175.847 306.908 175.847H317.962C320.157 175.847 321.935 174.067 321.935 171.87V160.804C321.935 158.608 320.157 156.827 317.962 156.827Z" fill="#D1F1D2"/>
<path d="M226.477 293.704C226.003 294.787 225.397 295.808 224.675 296.744C223.865 297.645 220.748 299.143 220.729 301.704C220.729 304.482 225.991 303.715 228.054 303.607C230.117 303.499 230.27 302.029 231.144 300.45C232.018 298.872 232.882 299.152 233.045 297.88C233.013 296.489 232.792 295.108 232.387 293.776L226.477 293.704Z" fill="#131C24"/>
<path d="M226.387 292.902L226.234 294.218C228.284 294.846 230.468 294.887 232.54 294.336L232.369 292.532L226.387 292.902Z" fill="#4F4946"/>
<path d="M264.531 293.704C265.009 294.785 265.614 295.805 266.333 296.744C267.143 297.645 270.27 299.143 270.288 301.704C270.288 304.482 265.026 303.715 262.963 303.607C260.9 303.499 260.738 302.029 259.873 300.45C259.008 298.872 258.126 299.152 257.963 297.88C257.997 296.488 258.221 295.107 258.63 293.776L264.531 293.704Z" fill="#131C24"/>
<path d="M264.621 292.902L264.774 294.218C262.724 294.847 260.539 294.887 258.468 294.336L258.639 292.532L264.621 292.902Z" fill="#4F4946"/>
<path d="M262.918 257.864C262.918 261.291 266.107 292.532 266.107 292.532C265.738 293.677 257.909 293.533 256.684 292.965C255.459 292.397 251.909 261.399 251.684 257.981C251.459 254.563 246.36 224.513 245.288 224.612C244.216 224.711 239.135 256.89 238.279 259.514C237.423 262.139 233.549 293.244 233.549 293.244C230.847 294.732 224.468 292.875 224.468 292.875C224.468 292.875 225.802 260.93 225.955 259.965C226.189 258.54 225.955 254.698 226.567 246.157C227.126 238.519 229.135 221.897 230.405 212.896C230.459 212.572 230.495 212.265 230.54 211.995C230.792 210.245 230.982 208.955 231.072 208.342L231.126 207.927C231.468 207.783 231.829 207.647 232.207 207.521C241.153 204.509 258.179 204.725 258.179 204.725C258.179 204.725 258.414 207.792 258.432 207.945C258.45 208.098 258.486 208.405 258.531 208.775C258.63 209.568 258.783 210.75 258.954 212.121V212.238C259.558 217.126 260.405 224.278 260.324 225.018C260.243 226.172 262.918 254.446 262.918 257.864Z" fill="#293E4F"/>
<path d="M264.189 156.647L259.792 172.438C259.639 172.952 259.459 173.584 259.27 174.314V174.359C258.248 178.247 257.608 182.225 257.36 186.237C257.171 189.484 257.774 202.552 257.774 202.552C257.774 202.552 251.117 205.041 241.162 204.41C241.162 204.41 230.45 204.157 231.324 197.583C233.639 180.185 231.378 173.006 231.072 171.266C231.072 171.266 229.811 163.248 228.766 156.169L244.468 150.27L251.135 150.775C251.135 150.775 261.261 153.319 264.189 156.647Z" fill="white"/>
<path d="M247.801 127.949C247.801 127.949 254.315 129.049 253.206 139.249C252.098 149.45 246.36 148.548 245.999 148.539C245.639 148.53 240.225 148.656 239.936 136.183C239.909 136.183 239.828 126.966 247.801 127.949Z" fill="#EEA987"/>
<path d="M250.657 145.58C250.657 145.58 250.432 149.783 250.828 150.694C251.224 151.605 245.603 154.5 242.107 151.208C242.107 151.208 242.81 146.618 242.594 144.994C242.378 143.371 250.657 145.58 250.657 145.58Z" fill="#EEA987"/>
<path d="M253.342 136.363C253.342 136.363 254.062 135.606 254.315 136.363C254.567 137.121 253.162 140.584 253.252 140.737C253.252 140.737 253.116 141.035 252.945 140.873C252.986 139.363 253.118 137.857 253.342 136.363Z" fill="#EEA987"/>
<path d="M239.982 136.093C239.982 136.093 239.297 135.308 239.009 136.093C238.72 136.877 239.765 140.296 239.909 140.512C239.909 140.512 240.135 140.864 240.315 140.701C240.296 139.16 240.184 137.621 239.982 136.093Z" fill="#EEA987"/>
<path d="M253.756 135.498C253.531 136.895 253.324 137.933 253.324 137.933L252.378 139.168C252.414 138.112 252.384 137.055 252.287 136.003C252.233 135.84 252.17 135.552 252.098 135.236C252.023 134.801 251.924 134.37 251.801 133.946C251.684 133.631 246.225 132.034 241.36 134.28C241.36 134.28 241.36 134.704 241.36 135.182C241.36 135.66 241.297 136.336 241.044 136.426C240.576 136.598 240.774 139.637 240.774 139.637L240.017 138.735C240.017 138.735 239.792 137.148 239.585 135.326C239.54 134.893 239.486 134.424 239.441 134.027C239.333 132.224 239.513 128.869 241.9 126.912C243.504 126.217 247.9 125.523 250.36 126.912C250.906 127.245 251.435 127.607 251.945 127.994C254.648 130.979 253.756 135.498 253.756 135.498Z" fill="#E8734D"/>
<path d="M243.044 147.177C243.471 147.662 244.006 148.04 244.605 148.281C245.204 148.523 245.851 148.62 246.495 148.566C247.131 148.593 247.765 148.49 248.36 148.264C248.955 148.037 249.497 147.692 249.954 147.249C249.954 147.249 248.81 149.639 246.486 149.612C244.162 149.585 243.044 147.177 243.044 147.177Z" fill="#C78D71"/>
<path d="M241.441 151.289C241.987 152.182 242.723 152.943 243.597 153.518C244.47 154.094 245.46 154.469 246.495 154.617C248.594 154.798 250.396 152.128 251.252 150.82C249.667 150.244 247.983 149.989 246.299 150.069C244.615 150.15 242.964 150.565 241.441 151.289Z" fill="#EEA987"/>
<path d="M250.666 149.864C249.469 151.274 248.062 152.491 246.495 153.472L248.297 156.178L251.306 150.766L250.666 149.864Z" fill="#F9E3DC"/>
<path d="M242.243 150.27C243.405 151.643 244.857 152.74 246.495 153.481L244.558 156.286L241.198 151.515L242.243 150.27Z" fill="#F9E3DC"/>
<path d="M246.468 153.481L247.981 155.781C247.509 156.034 246.979 156.162 246.443 156.152C245.907 156.143 245.382 155.996 244.918 155.727L246.468 153.481Z" fill="#0083E2"/>
<path d="M230.955 205.627C230.955 205.627 239.117 208.649 257.594 205.808L257.351 202.453C257.351 202.453 246.639 205.618 231.279 202.913L230.955 205.627Z" fill="#1A2833"/>
<path d="M251.27 150.811C250.142 159.64 249.591 168.534 249.621 177.435C249.883 189.754 253.873 212.851 253.873 212.851C253.873 212.851 260.999 212.157 262.765 209.929C262.765 209.929 258.684 187.689 258.801 184.397C258.918 181.105 264.035 156.322 264.035 156.322C264.035 156.322 262.036 153.643 251.27 150.811Z" fill="#5B64AB"/>
<path d="M241.063 151.56C241.063 151.56 241.063 165.088 240.783 177.435C240.504 189.781 238.901 212.689 238.901 212.689C238.901 212.689 230.54 211.498 228.775 209.271C228.775 209.271 231.72 187.689 231.603 184.397C231.486 181.105 227.829 156.565 227.829 156.565C227.829 156.565 229.072 154.753 241.063 151.56Z" fill="#5B64AB"/>
<path d="M247.108 203.454H242.09V207.188H247.108V203.454Z" fill="#3E5E78"/>
<path d="M245.792 155.203C245.792 155.203 243.549 162.86 243.351 178.066C243.153 193.272 243.63 197.646 243.63 197.646L245.378 201.109L247.711 197.501C247.711 197.501 246.963 162.5 247.396 155.474L245.792 155.203Z" fill="#0083E2"/>
<path d="M255.144 176.605C255.144 176.605 258.468 174.936 258.927 174.639C261.128 174.108 263.366 173.743 265.621 173.548C266.324 173.548 266.351 174.125 266.152 174.323C265.954 174.522 260.423 175.433 260.324 175.568C260.225 175.703 260.792 175.649 260.792 175.649C260.792 175.649 266.765 175.559 267.179 175.956C267.594 176.352 267.116 176.74 266.873 176.857C266.873 176.857 267.423 177.48 266.792 177.759C266.311 177.938 265.817 178.079 265.315 178.183C265.315 178.183 266.098 178.589 265.585 178.95C265.071 179.311 258.738 181.277 258.738 181.277C258.738 181.277 256.378 176.767 255.144 176.605Z" fill="#EEA886"/>
<path d="M266.549 188.059C262.234 189.087 252.27 187.409 248.468 186.571C247.666 186.399 246.756 186.21 245.819 186.03C244.27 185.723 242.648 185.425 241.315 185.191L238.531 184.704C238.531 184.704 259.45 180.005 260.225 180.005C260.999 180.005 258.306 167.749 258.306 167.749C258.306 167.749 255.603 157.503 257.017 153.472C257.017 153.472 262.324 155.086 264.035 156.313C264.999 156.998 265.702 161.444 266.351 164.43C267.18 168.263 269.107 176.984 269.324 178.86C269.522 180.555 270.855 187.022 266.549 188.059Z" fill="#5B64AB"/>
<path d="M234.54 153.526C234.54 153.526 228.117 155.727 227.811 156.565C226.864 159.497 226.088 162.481 225.486 165.503C224.973 167.397 223.811 173.052 223.513 174.9C223.126 177.245 222.396 185.579 222.721 186.868C223.117 188.492 226.937 188.374 229.027 188.05C231.117 187.725 259.657 180.754 259.657 180.754C259.657 180.754 258.026 175.424 257.945 174.955C257.945 174.955 235.883 177.48 233.072 178.084C231.468 178.427 231.117 178.553 231.117 178.553C231.117 178.553 236 158.567 234.54 153.526Z" fill="#5B64AB"/>
<path d="M238.36 177.39C238.36 177.39 235.477 175.045 235.09 174.684C233.057 173.679 230.949 172.838 228.783 172.168C228.684 172.133 228.578 172.126 228.475 172.147C228.372 172.169 228.277 172.218 228.2 172.289C228.123 172.361 228.067 172.452 228.038 172.553C228.009 172.654 228.008 172.761 228.036 172.862C228.126 173.34 233.441 175.135 233.531 175.279C233.621 175.424 233.054 175.279 233.054 175.279C233.054 175.279 227.243 173.908 226.747 174.206C226.252 174.504 226.639 174.982 226.856 175.108C226.856 175.108 226.189 175.604 226.747 176.01C227.177 176.29 227.629 176.534 228.099 176.74C228.099 176.74 227.198 176.966 227.675 177.435C228.153 177.904 231.153 178.571 231.153 178.571C231.153 178.571 237.099 177.245 238.36 177.39Z" fill="#EEA886"/>
<path d="M255.522 181.764L245.819 186.03C244.27 185.723 242.648 185.425 241.315 185.191L255.522 181.764Z" fill="#263947"/>
<path d="M250.846 127.877C250.846 127.877 252.459 127.056 253.333 128.129C254.207 129.202 254.306 135.002 253.234 137.229C252.161 139.457 253.405 129.32 250.846 127.877Z" fill="#E8734D"/>
<path d="M189.37 185.434H186.478V316.882H189.37V185.434Z" fill="#706865"/>
<path d="M193.424 130.528H115.713C110.927 130.528 107.046 134.413 107.046 139.204V286.516C107.046 291.308 110.927 295.192 115.713 295.192H193.424C198.21 295.192 202.09 291.308 202.09 286.516V139.204C202.09 134.413 198.21 130.528 193.424 130.528Z" fill="#FABF24"/>
<path d="M190.919 133.18H118.227C113.495 133.18 109.659 137.02 109.659 141.757V280.176C109.659 284.913 113.495 288.753 118.227 288.753H190.919C195.651 288.753 199.487 284.913 199.487 280.176V141.757C199.487 137.02 195.651 133.18 190.919 133.18Z" fill="white"/>
<path d="M168.739 129.275H140.416V135.678H168.739V129.275Z" fill="#706865"/>
<path d="M182.199 282.53H124.695C122.455 282.53 120.307 281.64 118.723 280.055C117.138 278.471 116.247 276.322 116.245 274.079V241.305C116.247 239.063 117.138 236.914 118.723 235.329C120.307 233.745 122.455 232.855 124.695 232.855H182.199C184.437 232.857 186.582 233.748 188.165 235.333C189.747 236.917 190.638 239.065 190.64 241.305V274.079C190.638 276.32 189.747 278.468 188.165 280.052C186.582 281.637 184.437 282.528 182.199 282.53ZM124.695 233.937C122.744 233.942 120.875 234.72 119.496 236.1C118.116 237.481 117.339 239.353 117.335 241.305V274.079C117.339 276.032 118.116 277.904 119.496 279.284C120.875 280.665 122.744 281.443 124.695 281.448H182.199C184.149 281.443 186.019 280.665 187.398 279.284C188.777 277.904 189.554 276.032 189.559 274.079V241.305C189.554 239.353 188.777 237.481 187.398 236.1C186.019 234.72 184.149 233.942 182.199 233.937H124.695Z" fill="#FEECBD"/>
<path d="M130.605 203.273C130.651 203.301 130.66 203.301 130.605 203.273V203.273Z" fill="#323657"/>
<path d="M180.541 199.729C178.688 199.729 176.877 199.179 175.336 198.148C173.795 197.118 172.594 195.653 171.885 193.939C171.176 192.225 170.99 190.339 171.352 188.52C171.713 186.7 172.606 185.029 173.916 183.717C175.226 182.405 176.896 181.512 178.713 181.15C180.531 180.788 182.415 180.974 184.127 181.684C185.839 182.394 187.302 183.596 188.331 185.139C189.361 186.681 189.91 188.494 189.91 190.35C189.91 192.837 188.923 195.223 187.166 196.982C185.409 198.741 183.026 199.729 180.541 199.729ZM180.541 182.061C178.901 182.06 177.297 182.545 175.933 183.456C174.569 184.367 173.505 185.663 172.877 187.179C172.248 188.696 172.083 190.365 172.403 191.975C172.722 193.585 173.512 195.065 174.671 196.226C175.831 197.386 177.309 198.177 178.917 198.497C180.526 198.817 182.193 198.652 183.708 198.022C185.223 197.393 186.517 196.328 187.427 194.963C188.337 193.597 188.822 191.991 188.82 190.35C188.818 188.152 187.945 186.045 186.393 184.491C184.841 182.938 182.736 182.064 180.541 182.061Z" fill="#FEECBD"/>
<path d="M180.541 221.347C178.688 221.347 176.877 220.797 175.336 219.766C173.795 218.736 172.594 217.271 171.885 215.557C171.176 213.843 170.99 211.957 171.352 210.138C171.713 208.318 172.606 206.647 173.916 205.335C175.226 204.023 176.896 203.13 178.713 202.768C180.531 202.406 182.415 202.592 184.127 203.302C185.839 204.012 187.302 205.214 188.331 206.756C189.361 208.299 189.91 210.112 189.91 211.967C189.91 214.455 188.923 216.841 187.166 218.6C185.409 220.359 183.026 221.347 180.541 221.347ZM180.541 203.679C178.902 203.677 177.299 204.163 175.936 205.074C174.573 205.984 173.51 207.28 172.883 208.796C172.256 210.312 172.092 211.98 172.413 213.589C172.734 215.198 173.524 216.676 174.684 217.834C175.844 218.993 177.322 219.782 178.93 220.099C180.538 220.416 182.204 220.249 183.717 219.618C185.23 218.987 186.522 217.92 187.429 216.553C188.335 215.187 188.817 213.581 188.811 211.94C188.802 209.749 187.927 207.651 186.377 206.103C184.828 204.555 182.73 203.684 180.541 203.679Z" fill="#FEECBD"/>
<path d="M138.307 190.773C137.532 190.773 136.749 190.728 135.983 190.656C135.217 190.584 134.28 190.449 133.451 190.286C129.851 189.55 126.464 188.008 123.542 185.777C122.675 185.114 121.856 184.391 121.091 183.613C120.929 183.459 120.785 183.306 120.65 183.162C120.109 182.584 119.587 181.98 119.109 181.358C115.801 177.103 114.014 171.86 114.037 166.468C114.052 160.028 116.613 153.857 121.162 149.303C125.71 144.75 131.875 142.186 138.307 142.171V143.263C132.16 143.267 126.266 145.714 121.919 150.064C117.571 154.415 115.126 160.314 115.118 166.468C115.102 171.608 116.805 176.605 119.956 180.663C120.425 181.259 120.92 181.836 121.434 182.386C121.56 182.521 121.704 182.675 121.857 182.819C122.587 183.559 123.367 184.249 124.19 184.884C126.982 187.025 130.223 188.505 133.668 189.213C134.466 189.374 135.272 189.495 136.082 189.574C136.821 189.646 137.569 189.682 138.307 189.682H139.064C139.763 189.665 140.461 189.61 141.154 189.52C144.951 189.054 148.574 187.65 151.694 185.434C152.028 185.2 152.343 184.965 152.649 184.722C152.956 184.478 153.19 184.289 153.469 184.045C154.4 183.241 155.265 182.364 156.055 181.421C159.552 177.232 161.466 171.945 161.46 166.486C161.46 165.348 161.379 164.212 161.217 163.086L162.289 162.924C162.468 164.118 162.556 165.324 162.55 166.531C162.549 172.25 160.536 177.787 156.866 182.17C156.036 183.154 155.133 184.074 154.163 184.92C153.875 185.164 153.586 185.407 153.262 185.624C152.938 185.84 152.604 186.129 152.262 186.372C148.995 188.692 145.202 190.161 141.226 190.647C140.514 190.737 139.776 190.791 139.037 190.818L138.307 190.773Z" fill="#FABF24" fill-opacity="0.3"/>
<path d="M155.244 179.338C155.174 179.24 155.093 179.152 155.001 179.076C154.971 179.031 154.931 178.994 154.884 178.968C150.379 176.461 142.19 174.459 142.19 174.459C141.979 173.284 141.918 172.086 142.01 170.896C143.111 169.455 143.807 167.746 144.028 165.945C144.163 166.044 144.271 165.81 144.271 165.81C144.19 165.674 145.415 162.689 145.172 162.013C145.055 161.634 144.803 161.679 144.604 161.787C144.604 161.616 144.659 161.435 144.695 161.246C144.695 161.246 145.172 156.674 142.893 154.121C142.659 153.887 141.803 153.833 141.803 153.833C138.091 152.696 135.866 153.201 134.469 153.833C132.397 155.528 132.244 158.414 132.334 160.001C132.379 160.38 132.415 160.759 132.461 161.129L132.515 161.562C132.325 161.444 132.064 161.381 131.929 161.76C131.677 162.428 132.587 165.368 132.695 165.584C132.695 165.584 132.893 165.891 133.046 165.755C133.25 167.64 133.939 169.439 135.046 170.977C134.965 172.447 134.704 174.287 134.632 174.774C132.74 175.369 123.226 177.904 120.344 179.798C119.971 180.128 119.696 180.556 119.551 181.033C120.02 181.646 120.523 182.233 121.055 182.792L121.488 183.243C122.237 184 123.038 184.706 123.884 185.353C126.736 187.55 130.052 189.064 133.578 189.781C134.393 189.951 135.217 190.074 136.046 190.151C136.794 190.223 137.56 190.259 138.325 190.259H139.1C139.821 190.259 140.541 190.178 141.235 190.088C145.129 189.617 148.845 188.182 152.046 185.912L153.028 185.173C153.307 184.956 153.586 184.722 153.857 184.487C154.828 183.658 155.731 182.754 156.559 181.782C156.218 180.918 155.777 180.098 155.244 179.338Z" fill="#FABF24" fill-opacity="0.3"/>
<path d="M409.79 234H437.907V232.332H409.79V234Z" fill="#E2D2CA"/>
<path d="M434.132 238.347H431.672V314.33H434.132V238.347Z" fill="#706865"/>
<path d="M394.655 234.244H414.195V231.854H394.655V234.244Z" fill="#CCBDB7"/>
<path d="M400.727 234H408.124V211.498H400.727V234Z" fill="#662323"/>
<path d="M339.71 238.347H447.997V234.027H339.71V238.347Z" fill="#B59074"/>
<path d="M468.78 207.882C468.78 207.882 469.96 224.503 466.717 226.497C464.681 227.741 456.573 231.908 456.807 232.738C457.041 233.567 461.384 239.745 461.384 239.745C461.384 239.745 476.951 229.482 477.456 226.217C477.96 222.952 476.69 201.866 474.546 200.892C472.951 200.162 472.104 200.766 470.041 202.272C467.258 204.41 468.78 207.882 468.78 207.882Z" fill="#323657"/>
<path d="M440.402 212.626L439.033 212.121C439.033 212.121 440.735 208.098 441.483 208.198C442.136 208.293 442.783 208.425 443.42 208.594L440.402 212.626Z" fill="#EAD8CF"/>
<path d="M440.087 213.32C440.267 213.185 443.006 207.909 443.006 207.909L448.862 208.703L445.699 214.935L440.087 213.32Z" fill="#DA9B5B"/>
<path d="M449.618 303.932C449.618 303.932 450.105 307.295 450.168 307.801C450.231 308.306 455.573 307.503 455.573 307.503L456.005 303.499C456.005 303.499 450.285 303.49 449.618 303.932Z" fill="#424773"/>
<path d="M450.069 307.404C449.12 308.54 448.002 309.523 446.754 310.317C445.123 311.219 442.555 311.543 441.592 312.463C440.898 313.122 439.051 315.963 445.835 315.908C452.618 315.854 455.88 316.305 456.645 315.223C457.411 314.141 455.6 307.178 455.6 307.178C455.6 307.178 453.988 307.755 450.069 307.404Z" fill="#292C47"/>
<path d="M415.501 303.995C415.501 303.995 415.988 307.359 416.051 307.864C416.114 308.369 421.456 307.566 421.456 307.566L421.889 303.562C421.889 303.562 416.168 303.517 415.501 303.995Z" fill="#424773"/>
<path d="M415.988 307.44C415.038 308.572 413.92 309.552 412.673 310.344C411.042 311.246 405.033 311.958 404.069 312.869C403.375 313.527 402.213 316.188 411.754 315.935C418.528 315.764 421.799 316.341 422.519 315.25C423.24 314.159 421.474 307.205 421.474 307.205C421.474 307.205 419.961 307.828 415.988 307.44Z" fill="#292C47"/>
<path d="M466.798 245.851C466.798 245.851 447.438 249.125 443.06 249.819C438.682 250.514 414.979 256.412 412.015 258.207C409.655 259.64 413.25 294.047 414.096 307.178H423.43L424.114 267.802C435.312 268.082 443.312 265.178 451.474 266.414C459.636 267.649 466.438 269.417 471.627 262.454C471.627 262.445 471.816 247.366 466.798 245.851Z" fill="#292C47"/>
<path d="M447.717 307.205L456.816 306.646L457.717 267.802C461.187 267.906 464.658 267.683 468.086 267.135L475.429 250.045C468.987 251.334 448.402 256.538 445.609 258.207C443.249 259.641 446.87 294.083 447.717 307.205Z" fill="#292C47"/>
<path d="M457.879 173.16C457.879 173.16 450.789 171.203 448.078 176.713C445.366 182.224 446.6 192.685 450.177 193.668C453.753 194.651 458.897 193.524 460.384 190.061C461.87 186.598 463.086 181.755 462.699 178.589C462.312 175.424 459.771 173.953 457.879 173.16Z" fill="#EEA886"/>
<path d="M452.033 192.604C452.033 192.604 452.105 196.798 451.645 197.691C451.186 198.584 461.555 198.367 461.555 198.367C461.555 198.367 459.924 193.326 460.852 189.033C461.78 184.74 452.033 192.604 452.033 192.604Z" fill="#EEA886"/>
<path d="M461.384 187.445C461.384 187.445 460.825 188.573 458.15 188.347C455.474 188.122 451.943 184.929 450.807 184.641C449.672 184.352 449.6 183.739 449.6 183.739L448.997 184.812L447.835 184.992C447.835 184.992 448.627 181.746 446.934 180.609C445.24 179.473 447.717 170.274 456.447 172.492C456.447 172.492 463.105 173.71 463.195 177.435C463.285 181.159 462.681 185.479 461.384 187.445Z" fill="#3A3F47"/>
<path d="M451.105 197.592C451.105 197.592 451.105 195.878 451.907 195.716C452.709 195.553 460.015 194.534 460.988 194.913L461.393 197.168C461.393 197.168 459.564 198.295 451.105 197.592Z" fill="#E2D2CA"/>
<path d="M448.969 182.99C449.168 181.583 450.771 179.978 451.672 182.161C452.573 184.343 451.06 187.518 450.032 187.346C449.005 187.175 448.708 184.884 448.969 182.99Z" fill="#EEA886"/>
<path d="M420.286 217.776C420.24 217.794 420.231 217.803 420.286 217.776V217.776Z" fill="#323657"/>
<path d="M459.979 174.197C459.979 174.197 468.636 173.791 461.492 187.319L459.979 174.197Z" fill="#3A3F47"/>
<path d="M479.24 311.814L478.591 313.627L451.393 305.194L452.699 301.523L479.24 311.814Z" fill="#918783"/>
<path d="M450.465 303.895H453.555V274.296H450.465V303.895Z" fill="#918783"/>
<path d="M442.889 274.467H461.123V272.727H442.889V274.467Z" fill="#5E5854"/>
<path d="M424.538 311.814L425.177 313.627L452.375 305.194L451.186 301.289L424.538 311.814Z" fill="#918783"/>
<path d="M443.699 313.437V315.539L452.375 305.194L451.186 301.289L443.699 313.437Z" fill="#918783"/>
<path d="M421.997 314.339C421.997 314.842 422.146 315.334 422.425 315.752C422.704 316.17 423.101 316.496 423.565 316.689C424.03 316.881 424.54 316.932 425.033 316.834C425.526 316.735 425.979 316.493 426.334 316.138C426.689 315.782 426.931 315.329 427.029 314.835C427.127 314.342 427.077 313.831 426.885 313.366C426.692 312.901 426.367 312.504 425.949 312.224C425.531 311.945 425.04 311.796 424.538 311.796C423.864 311.796 423.218 312.064 422.741 312.541C422.265 313.018 421.997 313.665 421.997 314.339Z" fill="#BFB2AC"/>
<path d="M443.483 314.339C443.483 314.842 443.632 315.334 443.912 315.752C444.191 316.17 444.587 316.496 445.052 316.689C445.516 316.881 446.027 316.932 446.52 316.834C447.012 316.735 447.465 316.493 447.82 316.138C448.176 315.782 448.418 315.329 448.516 314.835C448.614 314.342 448.563 313.831 448.371 313.366C448.179 312.901 447.853 312.504 447.435 312.224C447.018 311.945 446.526 311.796 446.024 311.796C445.35 311.796 444.704 312.064 444.227 312.541C443.751 313.018 443.483 313.665 443.483 314.339Z" fill="#BFB2AC"/>
<path d="M476.69 314.339C476.688 314.845 476.836 315.339 477.116 315.761C477.395 316.182 477.793 316.51 478.26 316.704C478.726 316.899 479.239 316.95 479.735 316.852C480.23 316.754 480.685 316.51 481.042 316.153C481.399 315.795 481.642 315.34 481.74 314.844C481.839 314.348 481.787 313.834 481.593 313.367C481.399 312.901 481.071 312.502 480.65 312.222C480.23 311.943 479.736 311.794 479.23 311.796C478.557 311.796 477.911 312.064 477.434 312.541C476.958 313.018 476.69 313.665 476.69 314.339Z" fill="#BFB2AC"/>
<path d="M433.547 272.727H470.222C472.023 272.727 473.483 271.265 473.483 269.462V269.381C473.483 267.578 472.023 266.116 470.222 266.116H433.547C431.745 266.116 430.285 267.578 430.285 269.381V269.462C430.285 271.265 431.745 272.727 433.547 272.727Z" fill="#E2D2CA"/>
<path d="M353.556 314.339H356.025V238.356H353.556V314.339Z" fill="#706865"/>
<path d="M375.718 222.339H433.123C434.919 222.339 436.375 220.881 436.375 219.083V180.465C436.375 178.667 434.919 177.209 433.123 177.209H375.718C373.922 177.209 372.466 178.667 372.466 180.465V219.083C372.466 220.881 373.922 222.339 375.718 222.339Z" fill="#BC3C3C"/>
<path d="M374.971 215.268H433.871V179.653H374.971V215.268Z" fill="white"/>
<path d="M374.971 182.485H433.871V179.653H374.971V182.485Z" fill="#501B1B"/>
<path d="M379.16 213.077H382.241C383.351 213.077 384.25 212.176 384.25 211.066V186.625C384.25 185.514 383.351 184.614 382.241 184.614H379.16C378.05 184.614 377.151 185.514 377.151 186.625V211.066C377.151 212.176 378.05 213.077 379.16 213.077Z" fill="#BC3C3C" fill-opacity="0.2"/>
<path d="M420.339 187.247H431.114C431.716 187.247 432.204 186.758 432.204 186.156V185.705C432.204 185.102 431.716 184.614 431.114 184.614H420.339C419.737 184.614 419.249 185.102 419.249 185.705V186.156C419.249 186.758 419.737 187.247 420.339 187.247Z" fill="#BC3C3C" fill-opacity="0.2"/>
<path d="M421.493 213.798H429.961C431.2 213.798 432.204 212.793 432.204 211.553V191.26C432.204 190.02 431.2 189.015 429.961 189.015H421.493C420.254 189.015 419.249 190.02 419.249 191.26V211.553C419.249 212.793 420.254 213.798 421.493 213.798Z" fill="#BC3C3C" fill-opacity="0.2"/>
<path d="M402.322 218.686C402.322 219.095 402.443 219.494 402.669 219.834C402.896 220.173 403.218 220.438 403.595 220.594C403.972 220.751 404.387 220.792 404.787 220.712C405.187 220.632 405.555 220.436 405.844 220.147C406.132 219.858 406.329 219.49 406.408 219.089C406.488 218.689 406.447 218.273 406.291 217.896C406.135 217.519 405.87 217.196 405.531 216.969C405.192 216.742 404.793 216.621 404.385 216.621C403.838 216.621 403.313 216.839 402.926 217.226C402.539 217.613 402.322 218.139 402.322 218.686Z" fill="white"/>
<path d="M391.187 234.09V233.288C391.187 233.288 392.322 228.291 400.294 228.291C408.267 228.291 408.114 234.09 408.114 234.09H391.187Z" fill="#DEDEDE"/>
<path d="M408.213 229.076C407.401 229.027 406.601 228.85 405.844 228.553C405.204 228.174 401.411 225.613 400.511 226.028C399.61 226.443 393.682 228.255 393.889 229.13C394.096 230.005 394.646 229.915 395.069 229.761C396.742 229.312 398.451 229.01 400.177 228.86C400.177 228.86 395.943 230.402 395.925 231.565C395.907 232.729 396.826 232.963 397.213 233.369C397.601 233.775 398.114 234.857 399.186 234.938C400.258 235.019 405.601 233.134 406.7 233.08C407.799 233.026 409.826 233.152 409.961 232.972C410.096 232.792 408.213 229.076 408.213 229.076Z" fill="#EEA886"/>
<path d="M439.763 199.954C445.285 198.98 451.105 197.592 451.105 197.592L461.393 197.168C461.393 197.168 470.843 199.251 474.555 200.929C474.915 201.091 474.915 209.37 475.879 211.535L472.798 218.046C472.798 218.046 470.996 230.952 470.645 236.688C470.474 239.321 471.123 262.148 471.123 262.148C471.123 262.148 470.222 262.608 463.177 263.383C456.132 264.159 438.609 263.104 438.492 262.274C438.375 261.444 441.889 231.349 442.096 229.807C442.33 227.417 441.402 216.36 441.402 216.36C440.078 218.163 436.709 226.181 433.186 230.005C431.123 232.251 420.88 233.612 418.952 233.694C414.745 233.838 407.078 234.668 406.853 234.262C406.673 234.018 406.186 227.453 406.664 227.29C407.141 227.128 421.321 226.325 424.97 224.395C426.303 223.683 430.294 214.971 430.294 214.971C430.294 214.971 436.709 201.325 439.763 199.954Z" fill="#323657"/>
<path d="M477.321 261.489H460.042C458.383 261.489 456.793 260.83 455.621 259.656C454.448 258.482 453.789 256.89 453.789 255.23V226.443C453.789 224.783 454.448 223.191 455.621 222.017C456.793 220.843 458.383 220.184 460.042 220.184H477.321C478.979 220.184 480.569 220.843 481.742 222.017C482.914 223.191 483.573 224.783 483.573 226.443L483.573 255.221C483.573 256.882 482.914 258.475 481.742 259.65C480.57 260.825 478.98 261.487 477.321 261.489Z" fill="#E2D2CA"/>
<path d="M459.077 271.076C461.054 271.157 463.024 270.807 464.852 270.05C466.679 269.293 468.321 268.148 469.663 266.693C475.618 260.109 474.546 248.538 474.501 248.051C474.487 247.829 474.428 247.612 474.328 247.412C474.229 247.213 474.09 247.036 473.921 246.891C473.751 246.747 473.554 246.638 473.342 246.571C473.129 246.505 472.905 246.482 472.684 246.503C472.462 246.525 472.247 246.592 472.052 246.698C471.857 246.805 471.685 246.95 471.546 247.125C471.408 247.3 471.307 247.501 471.248 247.716C471.189 247.931 471.174 248.155 471.203 248.376C471.203 248.511 472.158 258.991 467.194 264.466C465.194 266.684 462.537 267.757 459.086 267.757C458.647 267.757 458.225 267.932 457.914 268.243C457.603 268.555 457.429 268.977 457.429 269.417C457.429 269.857 457.603 270.279 457.914 270.59C458.225 270.901 458.647 271.076 459.086 271.076H459.077Z" fill="#E2D2CA"/>
<path d="M405.276 194.21C405.276 195.856 404.789 197.466 403.876 198.836C402.963 200.205 401.665 201.273 400.146 201.905C398.627 202.537 396.955 202.704 395.341 202.385C393.728 202.067 392.244 201.277 391.079 200.115C389.913 198.953 389.118 197.471 388.792 195.857C388.467 194.243 388.627 192.569 389.251 191.045C389.876 189.522 390.937 188.218 392.301 187.298C393.665 186.378 395.271 185.883 396.916 185.876C398.012 185.871 399.099 186.084 400.113 186.5C401.127 186.917 402.049 187.53 402.826 188.304C403.602 189.078 404.219 189.999 404.639 191.012C405.06 192.026 405.276 193.112 405.276 194.21Z" fill="#EEF0F7"/>
<path d="M402.376 198.8L401.763 201.001C400.644 201.8 399.343 202.305 397.979 202.471C397.731 202.502 397.482 202.52 397.231 202.525H396.916C396.652 202.538 396.387 202.538 396.123 202.525C395.821 202.499 395.52 202.456 395.222 202.399C393.984 202.143 392.82 201.61 391.817 200.838C391.7 200.108 391.574 199.305 391.466 198.548C392.078 198.322 394.024 197.646 395.25 197.249H395.304H395.385L395.592 197.177L395.781 197.114L396.277 196.942L397.925 197.068H398.204H398.331L399.105 197.285C400.293 197.545 401.409 198.062 402.376 198.8Z" fill="#D9C7C1"/>
<path d="M397.385 190.07C397.385 190.07 399.367 190.404 399.033 193.506C398.7 196.609 396.952 196.338 396.835 196.338C396.718 196.338 395.033 196.338 394.988 192.577C394.988 192.577 394.961 189.772 397.385 190.07Z" fill="#EEA987"/>
<path d="M398.259 195.436C398.218 195.953 398.233 196.473 398.304 196.987C398.43 197.267 396.718 198.151 395.655 197.15C395.76 196.524 395.808 195.89 395.799 195.256C395.736 194.805 398.259 195.436 398.259 195.436Z" fill="#EEA987"/>
<path d="M399.069 192.631C399.069 192.631 399.294 192.406 399.367 192.631C399.439 192.857 399.015 193.912 399.042 193.957C399.069 194.002 399.042 194.047 398.952 194.002C398.962 193.543 399.002 193.085 399.069 192.631Z" fill="#EEA987"/>
<path d="M395.006 192.55C395.006 192.55 394.799 192.307 394.709 192.55C394.725 193.01 394.816 193.464 394.979 193.894C394.979 193.894 395.051 194.002 395.105 193.948C395.101 193.48 395.068 193.014 395.006 192.55Z" fill="#EEA987"/>
<path d="M399.205 192.37C399.133 192.794 399.07 193.109 399.07 193.109L398.781 193.488C398.802 193.167 398.802 192.844 398.781 192.523C398.759 192.446 398.741 192.368 398.727 192.289C398.727 192.135 398.655 191.955 398.628 191.892C397.597 191.516 396.46 191.555 395.457 192C395.457 192 395.457 192.126 395.457 192.271C395.457 192.415 395.457 192.622 395.367 192.649C395.277 192.676 395.277 193.623 395.277 193.623L395.052 193.353C395.052 193.353 394.98 192.875 394.917 192.325C394.917 192.198 394.917 192.063 394.871 191.928C394.825 191.534 394.868 191.135 394.998 190.76C395.127 190.385 395.34 190.044 395.619 189.763C396.449 189.445 397.366 189.445 398.196 189.763C398.196 189.763 398.493 189.763 398.574 189.863C399.078 190.595 399.302 191.485 399.205 192.37Z" fill="#E8734D"/>
<path d="M395.934 195.923C396.067 196.069 396.23 196.182 396.413 196.256C396.595 196.329 396.792 196.36 396.988 196.347C397.182 196.355 397.376 196.324 397.557 196.254C397.739 196.184 397.904 196.078 398.042 195.941C397.946 196.144 397.797 196.317 397.612 196.444C397.427 196.571 397.212 196.646 396.988 196.663C396.764 196.641 396.549 196.561 396.364 196.432C396.179 196.302 396.031 196.127 395.934 195.923Z" fill="#C78D71"/>
<path d="M395.457 197.177C395.622 197.448 395.845 197.679 396.109 197.854C396.374 198.029 396.675 198.142 396.989 198.187C397.628 198.241 398.187 197.429 398.439 197.032C397.958 196.856 397.446 196.778 396.933 196.802C396.421 196.827 395.919 196.954 395.457 197.177Z" fill="#EEA987"/>
<path d="M398.258 196.735C397.894 197.165 397.466 197.536 396.988 197.835L397.529 198.665L398.43 197.032L398.258 196.735Z" fill="#EDDAD3"/>
<path d="M395.691 196.861C396.047 197.277 396.49 197.61 396.989 197.835L396.403 198.692L395.376 197.204L395.691 196.861Z" fill="#EDDAD3"/>
<path d="M396.988 197.835L397.448 198.539C397.309 198.613 397.154 198.652 396.997 198.652C396.84 198.652 396.685 198.613 396.547 198.539L396.988 197.835Z" fill="#5073AB"/>
<path d="M402.907 198.674V198.719C402.862 198.899 402.664 199.621 402.411 200.523L402.123 200.766L401.781 201.019C400.662 201.818 399.361 202.323 397.997 202.489C398.114 199.603 398.457 197.077 398.457 197.077L399.231 197.285C400.455 197.608 401.642 198.058 402.772 198.629L402.907 198.674Z" fill="#323657"/>
<path d="M395.294 202.371C394.056 202.116 392.892 201.583 391.889 200.811C391.591 200.587 391.311 200.34 391.051 200.072L390.898 199.918C390.754 199.296 390.655 198.89 390.655 198.863C392.131 198.11 393.7 197.555 395.321 197.213C395.321 197.303 395.321 199.639 395.294 202.371Z" fill="#323657"/>
<path d="M397.25 198.62C397.25 199.377 397.25 200.847 397.25 202.525H396.916C396.652 202.538 396.388 202.538 396.124 202.525C396.207 201.217 396.391 199.917 396.673 198.638C396.718 198.475 396.736 198.385 396.736 198.385L397.232 198.466C397.259 198.493 397.259 198.557 397.25 198.62Z" fill="#5073AB"/>
<path d="M403.322 199.567C403.045 199.89 402.744 200.192 402.421 200.469L402.132 200.712C402.132 200.712 402.61 199.314 402.934 198.638C403.123 198.818 403.222 199.314 403.322 199.567Z" fill="#323657"/>
<path d="M391.052 200.072L390.899 199.918C390.718 199.72 390.538 199.513 390.376 199.296C390.425 199.128 390.522 198.977 390.655 198.863L391.052 200.072Z" fill="#323657"/>
<path d="M335.151 300.062C334.514 299.04 333.632 298.194 332.584 297.6C331.097 296.906 328.079 299.323 327.782 300.667L324.25 305.825L324.917 306.276L326.8 303.526C325.521 306.619 323.683 310.317 324.998 312.184C326.728 314.682 330.656 317.207 331.692 316.765C332.728 316.323 332.521 309.063 332.521 309.063C331.377 302.66 335.151 300.062 335.151 300.062Z" fill="#1D3B54"/>
<path d="M335.152 300.062C334.415 301.489 333.765 302.959 333.206 304.464C332.539 306.385 332.422 311.679 331.999 312.084C331.575 312.49 328.296 310.795 327.863 308.802C327.431 306.808 328.764 302.831 330.026 300.739C330.71 299.566 331.573 298.507 332.584 297.6C333.202 297.722 333.773 298.019 334.228 298.455C334.683 298.892 335.003 299.449 335.152 300.062Z" fill="#DE9673"/>
<path d="M347.836 253.427C347.836 253.427 345.818 264.114 345.818 266.675C345.765 270.084 344.975 273.441 343.503 276.515C341.872 279.581 334.755 300.757 334.124 303.219C333.494 305.681 332.971 308.017 332.971 308.017C332.971 308.017 329.413 306.385 329.413 304.058C329.413 301.731 332.512 282.521 333.016 278.724C333.521 274.927 338.043 255.483 338.043 255.483L347.836 253.427Z" fill="#DE9673"/>
<path d="M336.458 252.696C336.458 252.696 337.151 261.598 337.079 263.924C337.007 266.251 335.917 271.518 335.917 272.943C335.917 274.368 335.917 303.237 337.07 306.718C338.224 310.2 333.827 307.81 333.827 307.81C333.827 307.81 326.161 288.798 326.161 280.871C326.161 272.943 327.061 268.993 326.548 263.951C325.949 259.977 324.962 256.072 323.602 252.29L336.458 252.696Z" fill="#EEA886"/>
<path d="M324.845 209.803C322.21 213.271 320.429 217.313 319.647 221.599C318.566 228.336 320.927 241.044 321.773 244.723C322.512 247.952 323.918 258.252 323.999 259.37C323.999 259.37 337.845 260.939 348.377 257.566C348.377 257.566 349.341 243.136 349.953 237.021C350.566 230.907 347.557 210.227 347.557 210.227L324.845 209.803Z" fill="#EB4747"/>
<path d="M340.701 315.485C335.737 311.147 337.097 306.691 337.097 306.691C335.94 306.293 334.701 306.19 333.494 306.394C331.881 306.79 331.016 310.641 331.692 311.868L332.196 318.181L333.007 318.118L332.746 314.745C333.701 318.001 334.611 322.086 336.809 322.727C339.764 323.628 344.457 323.078 344.998 322.077C345.539 321.076 340.701 315.485 340.701 315.485Z" fill="#1D3B54"/>
<path d="M343.611 162.59C343.611 162.59 342.386 169.904 343.449 172.357C344.512 174.81 337.809 169.489 337.809 169.489C337.809 169.489 340.593 161.435 343.611 162.59Z" fill="#754836"/>
<path d="M341.143 142.271C341.143 142.271 330.395 139.808 329.053 151.289C327.71 162.77 332.548 164.222 329.278 172.032C326.008 179.843 337.269 169.498 337.269 169.498L341.143 142.271Z" fill="#754836"/>
<path d="M340.214 142.099C342.643 142.037 345.001 142.926 346.786 144.576C348.571 146.226 349.642 148.509 349.773 150.938C349.603 152.123 349.338 153.294 348.98 154.437C348.457 155.97 349.719 160.579 349.349 160.75C348.741 160.964 348.113 161.118 347.475 161.21C347.475 161.21 345.728 166.152 343.98 166.062C342.232 165.972 335.656 164.412 332.71 158.126C329.764 151.84 329.079 142.325 340.214 142.099Z" fill="#EEA886"/>
<path d="M310.161 233.098C310.161 233.098 310.422 228.67 311.593 227.985C312.764 227.299 312.08 228.67 312.08 228.67C312.08 228.67 311.422 231.881 311.278 233.18C310.904 233.184 310.53 233.157 310.161 233.098Z" fill="#1D3B54"/>
<path d="M315.575 223.142C315.794 224.458 316.095 225.759 316.476 227.038C317.08 228.941 317.629 229.554 317.377 230.645C317.197 231.475 316.26 232.097 316.026 231.836C315.791 231.574 315.674 228.355 314.35 228.364C313.026 228.373 314.746 232.35 313.953 232.061C313.161 231.773 310.116 230.095 310.305 228.454C310.494 226.812 311.71 225.667 311.638 223.241C311.514 222.165 311.728 221.077 312.251 220.129L315.575 223.142Z" fill="#EEA886"/>
<path d="M314.512 228.228C314.512 228.228 316.314 228.688 316.179 234.686L314.17 234.352C314.201 232.628 314.014 230.906 313.611 229.229C313.611 229.229 313.71 228.057 314.512 228.228Z" fill="#1D3B54"/>
<path d="M321.872 236.038L306.242 231.601L306.296 250.865L321.836 260.191L321.872 236.038Z" fill="#EDDAD3"/>
<path d="M321.836 260.191L319.882 260.551L304.765 251.136L304.945 231.691L306.242 231.601L321.836 260.191Z" fill="#EDDAD3"/>
<path d="M341.701 169.119C341.701 169.119 345.863 170.833 346.611 171.356C347.358 171.879 348.836 177.904 349.205 178.427C349.575 178.95 353.169 183.414 352.674 187.04C352.319 189.159 351.247 191.092 349.638 192.514C348.593 193.632 347.629 199.639 347.304 200.532C346.98 201.425 348.016 213.158 348.016 213.158C348.016 213.158 335.8 217.92 324.863 209.803C324.863 209.803 327.052 201.948 327.052 200.532C327.052 199.116 325.638 189.15 321.845 183.261C318.053 177.372 322.512 171.131 325.449 170.391C328.386 169.652 333.926 167.559 333.926 167.559L341.701 169.119Z" fill="#EB4747"/>
<path d="M328.368 169.498C328.368 169.498 322.251 169.119 319.188 172.691C316.125 176.262 316.287 180.51 315.503 182.35C314.719 184.19 312.936 192.126 312.548 193.407C312.161 194.688 311.774 201.912 311.224 207.72C310.674 213.528 310.774 224.368 310.774 224.368L316.629 223.304C316.629 223.304 316.864 212.969 317.008 206.971C317.152 200.974 322.026 190.395 323.872 185.759C325.719 181.123 333.035 172.402 328.368 169.498Z" fill="#EB4747"/>
<path d="M345.998 171.013C346.847 171.112 347.658 171.426 348.352 171.924C349.047 172.423 349.604 173.09 349.971 173.863C351.25 176.569 351.773 178.778 352.079 179.446C352.386 180.113 357.052 188.943 357.331 190.9C357.611 192.857 357.169 196.419 354.71 197.375C352.25 198.331 343.449 198.43 343.449 198.43C343.449 198.43 345.674 193.921 343.611 191.549C343.611 191.549 350.007 190.395 351.521 190.241C353.034 190.088 343.971 173.025 345.998 171.013Z" fill="#EB4747"/>
<path d="M331.35 178.589L343.268 206.448L358.124 199.449L347.133 172.691L331.35 178.589Z" fill="#1D3B54"/>
<path d="M338.187 192.28C338.187 192.28 336.575 192.712 336.061 192.785C335.548 192.857 336.178 193.804 336.809 193.831C337.44 193.858 338.187 192.28 338.187 192.28Z" fill="#EEA886"/>
<path d="M339.259 200.216C339.626 200.203 339.988 200.13 340.331 200C340.331 200 340.881 199.639 341.295 199.404L341.62 199.233C342.266 199.034 342.875 198.73 343.421 198.331C344.124 197.79 346.403 195.625 346.403 195.625L344.899 193.353L343.728 191.549C343.728 191.549 338.836 191.684 338.124 192.117L337.926 192.252C337.522 192.624 337.159 193.038 336.845 193.488C336.746 193.578 335.818 194.588 335.881 194.994C335.896 195.221 335.968 195.44 336.091 195.631C336.214 195.822 336.383 195.978 336.584 196.085C336.688 196.674 336.957 197.221 337.358 197.664C337.411 197.962 337.531 198.245 337.709 198.49C337.887 198.735 338.118 198.937 338.385 199.08C338.385 199.08 338.656 200.09 339.259 200.216Z" fill="#EEA886"/>
<path d="M343.611 191.549C343.611 191.549 350.872 190.25 352.872 190.043C352.943 188.47 352.867 186.894 352.647 185.335C352.19 183.55 351.467 181.845 350.503 180.276L354.214 183.676C354.214 183.676 357.268 189.529 357.331 190.891C357.394 192.252 357.764 194.363 355.962 196.509C354.16 198.656 345.638 197.673 345.638 197.673C345.638 197.673 346.35 195.048 343.611 191.549Z" fill="#EB4747"/>
<path d="M341.385 164.935C341.385 164.935 341.142 165.629 340.872 166.657C340.737 167.18 340.584 167.794 340.449 168.461C339.994 170.212 339.933 172.041 340.268 173.818C340.268 173.818 336.367 175.054 333.467 169.498C333.467 169.498 334.944 163.636 333.34 160.019C331.737 156.403 341.385 164.935 341.385 164.935Z" fill="#EEA886"/>
<path d="M349.773 150.938C349.773 150.938 345.223 153.869 340.764 154.356C336.304 154.843 333.827 161.571 333.827 161.571C333.827 161.571 326.827 150.658 332.467 143.948C338.106 137.238 350.971 142.496 349.773 150.938Z" fill="#754836"/>
<path d="M338.926 154.103C338.948 153.821 338.881 153.539 338.736 153.295C338.591 153.052 338.374 152.86 338.115 152.745C337.856 152.631 337.568 152.599 337.291 152.655C337.014 152.711 336.76 152.851 336.566 153.057C335.124 154.193 336.899 158.333 338.07 157.963C339.241 157.593 338.926 154.987 338.926 154.103Z" fill="#EEA886"/>
<path d="M341.962 169.219C341.962 169.219 343.764 174.63 339.503 174.63C335.241 174.63 333.34 171.221 332.115 168.218C333.044 167.758 334.016 167.389 335.016 167.117C335.917 166.973 341.962 169.219 341.962 169.219Z" fill="#EEA886"/>
<path d="M316.179 234.424L314.17 234.686V233.748L316.179 234.424Z" fill="#1D3B54"/>
<path d="M311.332 233.035L310.224 233.171C310.224 233.171 310.224 232.837 310.224 232.72C310.224 232.602 311.26 232.963 311.332 233.035Z" fill="#1D3B54"/>
<path d="M337.07 306.691C337.394 308.285 337.816 309.857 338.332 311.399C339.034 313.338 342.332 317.613 342.232 318.172C342.133 318.731 338.503 319.516 336.89 318.226C335.278 316.937 333.791 312.95 333.458 310.497C333.255 309.157 333.204 307.799 333.305 306.448C333.305 306.448 335.521 305.302 337.07 306.691Z" fill="#EEA886"/>
<path d="M341.224 165.494C341.079 166.017 340.872 166.657 340.71 167.298C338.643 165.926 336.873 164.154 335.503 162.085C337.223 163.509 339.153 164.659 341.224 165.494Z" fill="#A77860"/>
<path opacity="0.25" d="M177.847 61.0929H219.396C221.021 61.0929 222.579 61.7391 223.728 62.8892C224.877 64.0393 225.522 65.5992 225.522 67.2257V84.0456C225.522 85.6721 224.877 87.232 223.728 88.3821C222.579 89.5323 221.021 90.1784 219.396 90.1784H177.847C176.223 90.1784 174.664 89.5323 173.515 88.3821C172.367 87.232 171.721 85.6721 171.721 84.0456V67.2257C171.724 65.5999 172.37 64.0414 173.518 62.8918C174.666 61.7422 176.223 61.0953 177.847 61.0929Z" fill="#47C94D"/>
<path d="M144.028 207.151C144.074 207.17 144.074 207.17 144.028 207.151V207.151Z" fill="#323657"/>
<path d="M118.434 202.507H158.19C159.295 202.507 160.19 201.61 160.19 200.505V199.278C160.19 198.172 159.295 197.276 158.19 197.276H118.434C117.329 197.276 116.434 198.172 116.434 199.278V200.505C116.434 201.61 117.329 202.507 118.434 202.507Z" fill="#FABF24" fill-opacity="0.3"/>
<path d="M118.434 211.949H158.19C159.295 211.949 160.19 211.053 160.19 209.947V208.721C160.19 207.615 159.295 206.719 158.19 206.719H118.434C117.329 206.719 116.434 207.615 116.434 208.721V209.947C116.434 211.053 117.329 211.949 118.434 211.949Z" fill="#FABF24" fill-opacity="0.3"/>
<path d="M118.434 221.392H158.19C159.295 221.392 160.19 220.496 160.19 219.39V218.163C160.19 217.058 159.295 216.161 158.19 216.161H118.434C117.329 216.161 116.434 217.058 116.434 218.163V219.39C116.434 220.496 117.329 221.392 118.434 221.392Z" fill="#FABF24" fill-opacity="0.3"/>
<path d="M185.298 140.232H175.793C173.733 140.232 172.063 141.904 172.063 143.966V173.358C172.063 175.42 173.733 177.092 175.793 177.092H185.298C187.357 177.092 189.027 175.42 189.027 173.358V143.966C189.027 141.904 187.357 140.232 185.298 140.232Z" fill="#FABF24" fill-opacity="0.3"/>
<path d="M83.2092 243.055C83.5683 243.651 83.8156 244.309 83.9389 244.994C84.14 245.796 84.4428 246.569 84.8398 247.294C85.3196 248.529 85.6845 249.806 85.9299 251.109C85.6936 251.948 85.5219 252.804 85.4164 253.67C85.4974 254.22 85.8127 255.321 85.3173 255.393C84.8218 255.465 84.3083 254.563 84.3083 254.563C84.3202 254.704 84.2908 254.846 84.2237 254.971C84.1565 255.096 84.0544 255.199 83.9299 255.266C83.746 255.385 83.534 255.452 83.3156 255.462C83.0971 255.471 82.8801 255.423 82.6867 255.321C82.6867 255.321 82.3804 255.88 82.002 255.952C81.7863 256.019 81.5585 256.039 81.3345 256.009C81.1105 255.979 80.8956 255.901 80.7047 255.78C80.4523 255.996 80.135 256.119 79.8038 256.132C79.5881 256.125 79.3781 256.061 79.1948 255.947C79.0114 255.833 78.8611 255.673 78.7588 255.483C78.7588 255.483 77.8579 255.672 77.5516 255.23C77.3706 254.822 77.258 254.386 77.2183 253.941C77.1211 251.7 77.5243 249.467 78.3984 247.402C78.7348 246.589 78.882 245.711 78.8289 244.832C78.7758 243.954 78.5239 243.1 78.0921 242.334L83.2092 243.055Z" fill="#EEA886"/>
<path d="M84.3892 254.229C84.3892 254.229 84.4793 251.028 83.6325 250.351C82.7856 249.675 82.7316 250.82 82.7316 250.82C82.7316 250.82 82.8487 249.684 81.9298 249.53C81.0109 249.377 80.9298 250.721 80.9298 250.721C80.9058 250.599 80.8569 250.483 80.7861 250.381C80.7153 250.279 80.6241 250.193 80.5184 250.127C80.4126 250.062 80.2945 250.019 80.1716 250.002C80.0486 249.985 79.9233 249.993 79.8037 250.027C78.8397 250.216 79.074 251.334 79.074 251.334C79.074 251.334 78.1731 250.234 77.5515 251.289C77.2743 251.901 77.1309 252.565 77.1309 253.237C77.1309 253.909 77.2743 254.573 77.5515 255.185C77.5515 255.185 77.8398 255.672 78.7587 255.438C78.8481 255.611 78.9764 255.761 79.1336 255.877C79.2908 255.992 79.4725 256.069 79.6645 256.102C79.8565 256.136 80.0536 256.124 80.2403 256.068C80.427 256.012 80.5983 255.914 80.7406 255.78C80.7406 255.78 82.155 256.556 82.6685 255.32C82.8508 255.421 83.0568 255.471 83.2648 255.464C83.4729 255.458 83.6754 255.396 83.8512 255.284C84.0271 255.173 84.1698 255.016 84.2644 254.83C84.359 254.645 84.4021 254.437 84.3892 254.229Z" fill="#DB9C7C"/>
<path d="M94.0558 196.951C94.0558 196.951 88.5784 215.214 86.7316 221.951C86.155 224.062 84.7497 244.236 84.5064 245.048C84.2632 245.86 77.2993 246.978 77.2993 246.978C77.2993 246.978 78.1462 221.726 78.2002 220.355C78.2543 218.984 85.8668 190.791 88.11 189.79C89.7586 189.033 90.6325 189.664 92.7135 191.206C95.6234 193.38 94.0558 196.951 94.0558 196.951Z" fill="#323657"/>
<path d="M160.659 163.459L148.082 171.703L148.691 172.635L161.269 164.391L160.659 163.459Z" fill="#4DA8F2"/>
<path d="M161.901 167.875C161.849 168.223 161.742 168.561 161.586 168.876C161.586 168.876 161.172 169.363 160.901 169.724L160.703 170.021C160.45 170.61 160.099 171.153 159.667 171.627C159.073 172.24 156.748 174.161 156.748 174.161L154.757 172.474L152.694 171.572C152.694 171.572 153.847 166.531 154.343 165.9L154.487 165.728C154.888 165.384 155.322 165.082 155.784 164.826C155.883 164.736 156.947 163.97 157.325 164.069C157.54 164.11 157.742 164.206 157.91 164.346C158.079 164.486 158.209 164.667 158.289 164.872C158.836 165.031 159.327 165.344 159.703 165.773C159.982 165.856 160.238 166.003 160.451 166.201C160.664 166.4 160.827 166.646 160.928 166.919C160.928 166.919 161.865 167.289 161.901 167.875Z" fill="#EFAA88"/>
<path d="M89.6146 321.635C89.6146 321.635 89.1191 325.108 89.0561 325.631C88.993 326.154 83.5066 325.324 83.5066 325.324L83.0562 321.193C83.0562 321.193 88.9299 321.148 89.6146 321.635Z" fill="#424773"/>
<path d="M89.1099 325.189C90.0905 326.357 91.2452 327.367 92.5333 328.183C94.218 329.085 96.8576 329.455 97.8485 330.402C98.5693 331.078 100.47 334.009 93.4792 333.946C86.4883 333.883 83.128 334.361 82.3803 333.242C81.6326 332.124 83.4614 324.954 83.4614 324.954C83.4614 324.954 85.119 325.577 89.1099 325.189Z" fill="#292C47"/>
<path d="M128.938 321.635C128.938 321.635 128.433 325.108 128.37 325.631C128.307 326.154 122.821 325.324 122.821 325.324L122.379 321.193C122.379 321.193 128.253 321.148 128.938 321.635Z" fill="#424773"/>
<path d="M128.452 325.189C129.432 326.357 130.587 327.367 131.875 328.183C133.551 329.085 139.74 329.842 140.74 330.789C141.452 331.466 142.65 334.207 132.821 333.946C125.839 333.765 122.47 334.361 121.722 333.242C120.974 332.124 122.803 324.954 122.803 324.954C122.803 324.954 124.344 325.577 128.452 325.189Z" fill="#292C47"/>
<path d="M94.1639 232.557C94.1639 232.557 89.0018 240.755 89.3892 248.169C89.7766 255.582 87.5153 263.681 86.7406 271.464C85.8397 280.095 82.3442 300.531 82.2361 305.149C82.128 309.767 82.7857 324.521 82.7857 324.521L89.8576 324.675C89.8576 324.675 95.8035 288.942 97.335 285.299C98.8665 281.655 106.506 255.663 106.767 252.741C107.029 249.819 94.1639 232.557 94.1639 232.557Z" fill="#292C47"/>
<path d="M121.308 233.667C121.308 233.667 125.191 253.986 125.704 258.522C126.218 263.059 126.56 280.483 126.812 283.315C127.064 286.147 129.209 320.346 129.893 324.675H120.884C120.884 324.675 113.939 299.765 113.939 287.977C113.939 276.19 108.533 262.346 105.119 254.608C101.704 246.87 93.7316 246.654 91.6055 232.215C91.5605 232.133 118.425 229.076 121.308 233.667Z" fill="#292C47"/>
<path d="M102.767 163.6C102.767 163.6 109.686 161.021 112.875 166.306C116.064 171.591 115.758 182.142 112.272 183.441C108.785 184.74 103.542 184.054 101.758 180.736C99.9746 177.417 98.353 172.664 98.4341 169.471C98.5151 166.278 100.948 164.529 102.767 163.6Z" fill="#EEA886"/>
<path d="M111.524 183.667C111.366 184.597 111.427 185.551 111.704 186.453C112.182 187.355 102.74 187.355 102.74 187.355C102.236 184.237 101.495 181.162 100.524 178.156C99.0647 173.917 111.524 183.667 111.524 183.667Z" fill="#EEA886"/>
<path d="M100.524 178.156C100.524 178.156 101.173 179.229 103.83 178.815C106.488 178.4 109.74 174.855 110.848 174.458C111.956 174.062 111.974 173.421 111.974 173.421L112.668 174.44L113.848 174.513C113.848 174.513 112.767 171.338 114.398 170.048C116.028 168.759 112.713 159.794 104.181 162.779C104.181 162.779 97.623 164.583 97.8753 168.317C98.1275 172.05 99.0554 176.298 100.524 178.156Z" fill="#D88A51"/>
<path d="M112.236 186.345C112.236 186.345 112.236 184.541 111.407 184.415C110.578 184.289 102.605 183.513 101.623 183.865V185.912C101.623 185.912 103.551 187.076 112.236 186.345Z" fill="#D7D7D7"/>
<path d="M111.794 172.059C111.65 171.437 110.056 169.651 109.452 171.563C108.848 173.475 110.353 176.073 111.254 175.829C112.155 175.586 112.173 173.647 111.794 172.059Z" fill="#EEA886"/>
<path d="M125.506 189.015C120.019 188.284 112.272 186.309 112.272 186.309L101.659 185.876C101.659 185.876 91.9294 188.023 88.1457 189.754C87.7764 189.917 87.7764 198.448 86.7764 200.685L89.9115 207.431C89.9115 207.431 91.7132 220.725 92.1276 226.641C92.3078 229.347 88.3439 252.092 88.3439 252.092C92.1089 253.082 95.9469 253.769 99.8212 254.148C107.028 254.942 125.145 253.859 125.262 253.003C125.379 252.146 121.758 221.13 121.596 219.525C121.352 217.063 122.497 203.968 122.497 203.968C124.163 202.669 138.839 195.851 142.839 192.298C143.911 191.342 148.433 186.931 149.721 185.416C154.226 180.005 158.001 175.405 158.451 174.404C158.974 173.845 153.505 170.869 153.046 170.707C152.586 170.544 146.379 178.571 144.019 181.105C142.292 182.646 140.488 184.097 138.613 185.452C138.613 185.452 128.938 189.204 125.506 189.015Z" fill="#323657"/>
<path d="M100.794 164.222C100.794 164.222 91.9656 164.917 100.524 178.156L100.794 164.222Z" fill="#D88A51"/>
<path d="M160.568 164.087L161.289 162.987L159.965 163.158L160.568 164.087Z" fill="#DFE1E8"/>
</g>
<defs>
<linearGradient id="paint0_linear" x1="381.745" y1="34.7763" x2="451.222" y2="34.7763" gradientUnits="userSpaceOnUse">
<stop stop-color="#B6FFB9"/>
<stop offset="1" stop-color="#419844"/>
</linearGradient>
<linearGradient id="paint1_linear" x1="12724.6" y1="3069.14" x2="13850.7" y2="3069.14" gradientUnits="userSpaceOnUse">
<stop stop-color="#47C94D"/>
<stop offset="0.447917" stop-color="#3B813E"/>
</linearGradient>
<linearGradient id="paint2_linear" x1="23210.9" y1="867.856" x2="92036" y2="867.856" gradientUnits="userSpaceOnUse">
<stop stop-color="#3B813E"/>
<stop offset="1" stop-color="#FFD255"/>
</linearGradient>
<clipPath id="clip0">
<rect x="0.427734" y="94.5283" width="161.748" height="218.465" fill="white"/>
</clipPath>
<clipPath id="clip1">
<rect x="77.1011" width="406.472" height="334" fill="white"/>
</clipPath>
</defs>
</svg>
