<svg width="35" height="35" viewBox="0 0 35 35" fill="none" xmlns="http://www.w3.org/2000/svg">
<path d="M31.0263 2.77868C26.4123 6.77196 22.5087 10.5733 18.9349 15.5329C17.3588 17.7204 15.6061 20.2951 14.4604 22.7259C13.8063 24.0149 12.6272 26.0291 12.2253 27.9656C10.0269 25.9202 7.66545 23.5988 5.24935 21.7804C3.52724 20.4848 -1.43291 23.1263 0.58615 24.6455C4.20482 27.3673 7.21427 30.7574 10.734 33.6006C12.2062 34.7884 15.4688 32.2088 16.2355 31.1265C18.7522 27.5609 19.0962 23.2023 20.9304 19.3129C23.731 13.3645 28.6977 8.47821 33.6015 4.23501C36.8505 1.20477 33.4949 0.645867 31.0312 2.77868" fill="#37B34A"/>
</svg>
