<svg width="16" height="18" viewBox="0 0 16 18" fill="none" xmlns="http://www.w3.org/2000/svg">
<path d="M2.16911 15.6667C2.16911 16.5858 2.91661 17.3333 3.83577 17.3333H12.1691C13.0883 17.3333 13.8358 16.5858 13.8358 15.6667V5.66667H15.5024V4H12.1691V2.33333C12.1691 1.41417 11.4216 0.666668 10.5024 0.666668H5.50244C4.58327 0.666668 3.83577 1.41417 3.83577 2.33333V4H0.502441V5.66667H2.16911V15.6667ZM5.50244 2.33333H10.5024V4H5.50244V2.33333ZM4.66911 5.66667H12.1691L12.1699 15.6667H3.83577V5.66667H4.66911Z" fill="white"/>
<path d="M5.50244 7.33334H7.16911V14H5.50244V7.33334ZM8.83577 7.33334H10.5024V14H8.83577V7.33334Z" fill="white"/>
</svg>
