<svg width="19" height="13" viewBox="0 0 19 13" fill="none" xmlns="http://www.w3.org/2000/svg">
<path d="M9.50008 1C5.54175 1 2.16133 3.46208 0.791748 6.9375C2.16133 10.4129 5.54175 12.875 9.50008 12.875C13.4584 12.875 16.8388 10.4129 18.2084 6.9375C16.8388 3.46208 13.4584 1 9.50008 1ZM9.50008 10.8958C7.31508 10.8958 5.54175 9.1225 5.54175 6.9375C5.54175 4.7525 7.31508 2.97917 9.50008 2.97917C11.6851 2.97917 13.4584 4.7525 13.4584 6.9375C13.4584 9.1225 11.6851 10.8958 9.50008 10.8958ZM9.50008 4.5625C8.18591 4.5625 7.12508 5.62333 7.12508 6.9375C7.12508 8.25167 8.18591 9.3125 9.50008 9.3125C10.8142 9.3125 11.8751 8.25167 11.8751 6.9375C11.8751 5.62333 10.8142 4.5625 9.50008 4.5625Z" fill="white"/>
</svg>
