<svg width="13" height="16" viewBox="0 0 13 16" fill="none" xmlns="http://www.w3.org/2000/svg">
<path d="M8.9375 1.6H1.625V14.4H11.375V4H8.9375V1.6ZM1.625 0H9.75L13 3.2V14.4C13 14.8243 12.8288 15.2313 12.524 15.5314C12.2193 15.8314 11.806 16 11.375 16H1.625C1.19402 16 0.780698 15.8314 0.475951 15.5314C0.171205 15.2313 0 14.8243 0 14.4V1.6C0 1.17565 0.171205 0.768687 0.475951 0.468629C0.780698 0.168571 1.19402 0 1.625 0ZM3.25 7.2H9.75V8.8H3.25V7.2ZM3.25 10.4H9.75V12H3.25V10.4Z" fill="#868686"/>
</svg>
