<svg width="22" height="36" viewBox="0 0 22 36" fill="none" xmlns="http://www.w3.org/2000/svg">
<path d="M10.1388 29.4042C8.34461 29.4344 6.89948 30.8796 6.86922 32.6737C6.86651 32.7287 6.86651 32.7864 6.86922 32.8413C6.93245 34.6464 8.44352 36.0585 10.2486 35.9981H10.1388C11.9521 35.9679 13.4083 34.4897 13.4083 32.6737C13.3643 30.8851 11.9274 29.4481 10.1388 29.4042Z" fill="#FABF24"/>
<path d="M10.7705 0.00609513C6.89651 -0.109299 3.15445 1.41826 0.467409 4.20974C0.156901 4.59984 -0.0079477 5.08614 0.000294745 5.58352C0.0140751 6.8007 0.981146 7.79249 2.19832 7.83641C2.76435 7.83912 3.31105 7.63305 3.73696 7.25944C5.44044 5.49285 7.79494 4.50093 10.2485 4.512C13.9576 4.512 15.7435 6.51762 15.7435 8.8805C15.7435 13.9358 6.75923 14.5678 6.75923 21.1343C6.75923 22.7278 7.74832 25.6676 9.80893 25.6676C9.82542 25.6676 9.8446 25.6676 9.86392 25.6676C10.9711 25.6676 11.8695 24.7692 11.8695 23.662C11.8695 22.9202 11.3476 22.2882 11.3476 21.5464C11.3476 16.601 21.0187 15.9141 21.2385 8.24866C21.2384 3.5779 17.282 0.00609513 10.7705 0.00609513Z" fill="#FABF24"/>
</svg>
