<svg width="15" height="14" viewBox="0 0 15 14" fill="none" xmlns="http://www.w3.org/2000/svg">
<path d="M11.0878 4.16099C10.6481 3.60309 10.0826 3.15222 9.43441 2.84578C8.67501 2.48676 7.831 2.33965 6.9933 2.42034C6.15561 2.50104 5.35614 2.80648 4.68096 3.30363C4.0058 3.80077 3.48056 4.47076 3.16164 5.24132L3.16161 5.24141L2.99493 5.64319C2.95849 5.73786 2.9034 5.82432 2.83293 5.89755L2.74286 5.81088L2.83293 5.89755C2.76204 5.97122 2.67702 6.03001 2.58294 6.0705C2.48887 6.111 2.3876 6.1324 2.2851 6.13347C2.1826 6.13455 2.0809 6.11528 1.98599 6.07677C1.89107 6.03827 1.80482 5.98128 1.73238 5.90913C1.65993 5.83697 1.60275 5.7511 1.56428 5.65655C1.52581 5.562 1.50685 5.46074 1.50854 5.35875C1.51023 5.25733 1.53232 5.1573 1.57346 5.06452L1.74013 4.66273L11.0878 4.16099ZM11.0878 4.16099L10.3683 3.94327C10.2716 3.91181 10.1697 3.89971 10.0683 3.90764C9.96636 3.91562 9.86706 3.94367 9.77618 3.9902C9.6853 4.03674 9.60463 4.10082 9.53897 4.17876C9.4733 4.2567 9.42397 4.34692 9.39393 4.44414L9.51335 4.48104L9.39393 4.44414C9.36388 4.54136 9.35376 4.64357 9.36416 4.74475C9.37456 4.84594 9.40527 4.94399 9.45443 5.03316C9.5036 5.12233 9.57022 5.20078 9.65031 5.26396C9.73003 5.32685 9.82152 5.37335 9.91942 5.40084L12.3796 6.14595L12.3797 6.14597C12.5742 6.20473 12.7844 6.18462 12.9641 6.08996C13.1438 5.99527 13.2786 5.83359 13.3384 5.64012L14.0913 3.2029L14.0913 3.20289C14.1511 3.00924 14.1307 2.80001 14.0348 2.62133C13.9389 2.4427 13.7755 2.30948 13.5808 2.25053C13.3861 2.19159 13.1758 2.2116 12.996 2.30628C12.8161 2.40097 12.6812 2.56275 12.6214 2.75637L12.6213 2.75646L12.4262 3.38994M11.0878 4.16099L12.4262 3.38994M12.4262 3.38994C11.8207 2.56481 11.0152 1.90204 10.0823 1.46382C9.07119 0.988837 7.94857 0.795549 6.83498 0.904641C5.72138 1.01373 4.65871 1.42111 3.76109 2.08314C2.86348 2.74517 2.16479 3.63688 1.74017 4.66264L12.4262 3.38994ZM2.3929 11.2976L2.53821 10.7208L13.3122 8.87652C13.3122 8.87652 13.3122 8.87651 13.3122 8.8765C13.3429 8.78101 13.3544 8.68042 13.3459 8.58049C13.3374 8.48056 13.3092 8.3833 13.2627 8.29429C13.2163 8.20527 13.1527 8.12626 13.0756 8.06173C12.9984 7.9972 12.9093 7.9484 12.8132 7.91806C12.7171 7.88772 12.616 7.87642 12.5156 7.88478C12.4152 7.89315 12.3173 7.92102 12.2277 7.96684C12.1381 8.01267 12.0583 8.07557 11.9931 8.15202C11.9279 8.22846 11.8784 8.31694 11.8477 8.41242C11.5817 9.23715 11.085 9.97049 10.4149 10.5273C9.74489 11.0841 8.92902 11.4415 8.06191 11.5579C7.19479 11.6744 6.31215 11.545 5.51639 11.1849C4.82252 10.8709 4.21959 10.3927 3.75949 9.79479L4.58123 9.99752C4.58124 9.99752 4.58124 9.99752 4.58125 9.99752C4.77871 10.0463 4.9877 10.0154 5.16233 9.9115C5.33701 9.80758 5.46319 9.63898 5.51268 9.4425C5.56217 9.24599 5.53075 9.03811 5.42552 8.8647C5.32032 8.69134 5.15011 8.5668 4.95262 8.51804L4.9526 8.51803L2.49232 7.91093C2.39351 7.88131 2.28969 7.87173 2.18706 7.88277C2.08327 7.89394 1.98282 7.92597 1.89185 7.97695C1.80089 8.02793 1.7213 8.0968 1.65801 8.17942L1.75724 8.25544L1.65801 8.17942C1.59475 8.262 1.54912 8.35655 1.52396 8.45731C1.52394 8.45737 1.52393 8.45743 1.52391 8.45749L0.902036 10.9281C0.875208 11.0258 0.868252 11.1278 0.88159 11.2281C0.894996 11.329 0.928625 11.4261 0.980449 11.5138C1.03227 11.6016 1.10123 11.678 1.1832 11.7389C1.26518 11.7997 1.35854 11.8436 1.45777 11.8681C1.557 11.8926 1.66017 11.8972 1.76122 11.8817C1.86227 11.8662 1.95922 11.8308 2.04637 11.7776C2.13353 11.7244 2.20915 11.6544 2.26874 11.5717C2.32804 11.4895 2.37026 11.3963 2.3929 11.2976Z" fill="white" stroke="white" stroke-width="0.25"/>
</svg>
